<?xml version="1.0" encoding="UTF-8" standalone="no"?>
<!-- Created with Inkscape (http://www.inkscape.org/) -->

<svg
   width="210mm"
   height="297mm"
   viewBox="0 0 210 297"
   version="1.1"
   id="svg1"
   xml:space="preserve"
   inkscape:version="1.4.2 (ebf0e940, 2025-05-08)"
   sodipodi:docname="Puffin detailed.svg"
   xmlns:inkscape="http://www.inkscape.org/namespaces/inkscape"
   xmlns:sodipodi="http://sodipodi.sourceforge.net/DTD/sodipodi-0.dtd"
   xmlns="http://www.w3.org/2000/svg"
   xmlns:svg="http://www.w3.org/2000/svg"><sodipodi:namedview
     id="namedview1"
     pagecolor="#ffffff"
     bordercolor="#000000"
     borderopacity="0.25"
     inkscape:showpageshadow="2"
     inkscape:pageopacity="0.0"
     inkscape:pagecheckerboard="0"
     inkscape:deskcolor="#d1d1d1"
     inkscape:document-units="mm"
     inkscape:zoom="0.38551687"
     inkscape:cx="748.34599"
     inkscape:cy="579.74117"
     inkscape:window-width="1280"
     inkscape:window-height="770"
     inkscape:window-x="0"
     inkscape:window-y="58"
     inkscape:window-maximized="0"
     inkscape:current-layer="layer1" /><defs
     id="defs1" /><g
     inkscape:label="Layer 1"
     inkscape:groupmode="layer"
     id="layer1"><g
       stroke-width="2"
       fill="none"
       stroke-linecap="butt"
       id="g16"
       transform="matrix(0.26458333,0,0,0.26458333,-26.987498,7.408335)"><path
         stroke="#808080"
         vector-effect="non-scaling-stroke"
         d="m 426.12,837.28 -3.87,14.44 a 1.47,1.46 6.6 0 1 -1.38,1.09 c -6.38,0.16 -12.96,-0.02 -19.74,0.98 q -16.56,2.44 -19.24,3.08 -26.52,6.28 -53.03,10.26 c -17.78,2.66 -36.09,9.48 -49.59,20.84 q -2.96,2.49 -5.66,6.85 c -2.43,3.93 -2.5,10.55 2.06,13.3 7.02,4.24 14.29,2.17 21.98,2.53 q 7.67,0.36 17.08,-0.56 a 0.41,0.41 0 0 1 0.41,0.6 c -4.26,8.16 -4.45,17.25 5.49,20.04 2.08,0.59 5.92,0.55 7.63,0.28 7.05,-1.09 17.33,-2.9 25.84,-3.29 a 1.8,1.8 0 0 1 1.72,1.04 c 2.42,5.13 4.69,10.47 8,14.02 q 4.35,4.65 10.98,2.77 13.2,-3.76 28.5,-9.5 10.76,-4.04 25.59,-12.82 c 8.68,-5.15 11.67,-6.77 20.53,-11.56 8.4,-4.54 17.45,-11.47 19.74,-21.22 q 1.38,-5.92 1.44,-9.46 0.31,-16.99 1.6,-33.39 a 0.86,0.86 0 0 1 0.99,-0.78 q 13.74,2.16 28.06,3.08 3.59,0.23 6.5,0.08 20.87,-1.05 21.44,-1.09 7.19,-0.56 15.63,-0.34 c 7.97,0.2 17.26,-0.41 25.88,0.09 a 0.46,0.45 -83.7 0 1 0.42,0.53 c -0.57,3.79 -1.04,5.99 -1.08,9.36 -0.08,5.61 -0.17,9.59 -0.52,13.55 q -0.1,1.17 -2.29,1.71 -14.8,3.6 -33.89,7.33 -21.71,4.24 -48.49,14.72 -6.82,2.67 -20.38,10.39 -11.19,6.37 -19.18,14.8 c -4.66,4.93 -8.41,9.76 -5.65,16.36 2.72,6.52 17.65,6.81 23.19,6.22 q 5.62,-0.6 17.97,-0.96 a 0.16,0.16 0 0 1 0.15,0.24 c -3.1,5.53 -8.08,18.09 -2.53,22.94 3.91,3.42 7.3,5.79 12.75,5.35 q 5.4,-0.44 9.92,-1.88 18.05,-5.75 34.48,-10.05 a 0.61,0.6 -12.9 0 1 0.74,0.46 q 2.33,10.61 7.56,19.39 2.72,4.56 8.07,3.59 6.49,-1.17 11.12,-3.92 c 11.78,-6.97 22.55,-16.04 33.54,-26.02 q 7.64,-6.95 11.35,-11.94 3.99,-5.35 8.54,-14.1 c 5.64,-10.84 7.24,-24.82 6.3,-36.79 -1.14,-14.63 -2.16,-23.8 -1.37,-37.41 a 0.57,0.57 0 0 1 0.58,-0.53 c 11.19,0.23 23.58,0.51 36,-1.51 q 14.28,-2.32 21.75,-4.23 17.92,-4.56 25.64,-6.34 23.79,-5.47 49.37,-3.66 c 21.2,1.49 38.47,5 63.02,9.93 q 16.34,3.29 27,3.64 18.43,0.6 25.47,-0.07 c 20.98,-1.98 41.99,-7.48 60.81,-10.91 q 19.58,-3.57 38.69,-2.78 13.49,0.55 29.52,5.05 c 4.19,1.17 8.61,2.15 10.12,-2.6 a 3.17,2.5 -67.2 0 0 -0.94,-3.41 q -2.36,-1.45 -5.57,-2.7 -14.39,-5.6 -29.89,-6.53 -22.08,-1.34 -46.09,3.06 -6.91,1.27 -37.21,7.46 c -21.01,4.29 -40.69,4.01 -62.75,0.84 -10.7,-1.54 -23.4,-4.54 -36.2,-6.96 q -17.88,-3.38 -39.96,-4.83 c -15.61,-1.02 -31.18,0.71 -46.23,3.67 -11.76,2.31 -26.14,6.61 -39.06,9.16 q -19.25,3.8 -42.36,2.68 a 0.61,0.6 -87.2 0 1 -0.57,-0.64 l 1.27,-21.13 a 1.73,1.73 0 0 1 0.87,-1.39 c 7.03,-3.93 11.72,-9.34 16.81,-15.56 1.15,-1.4 2.9,-2.65 4.62,-2.86 q 3.34,-0.41 20.82,-1.77 11.21,-0.87 32.79,-3.64 39.05,-5.01 75.2,-19.77 9.26,-3.78 17.67,-8.95 a 2.61,2.59 -48.3 0 1 2.43,-0.15 q 31.24,14.26 65.98,17.91 c 13.56,1.43 26.61,2.8 40.2,1.78 q 11.19,-0.83 19.76,-5.23 c 6.46,-3.31 11.13,-10.41 5.63,-17.15 q -5.08,-6.23 -10.87,-11.38 -21.35,-18.99 -45.11,-37.4 -1.68,-1.3 -3,-2.68 a 0.3,0.3 0 0 1 0.1,-0.48 q 21.99,-9.16 45.27,-21.93 c 3.85,-2.12 10.12,-7.95 8.13,-12.61 q -1,-2.35 -4.02,-4.52 -3.98,-2.86 -16.55,-9.93 c -7.4,-4.17 -15.69,-9.93 -23.38,-16.11 -19.86,-15.96 -39.72,-34.75 -56.17,-55.11 q -15.45,-19.11 -29.59,-40.23 c -9.36,-13.96 -21.97,-35.71 -30.29,-48.13 q -34.56,-51.6 -79.31,-90.42 c -10.99,-9.53 -25.88,-20.53 -41.66,-30.06 q -10.73,-6.48 -40.69,-25.79 c -9.93,-6.4 -16.02,-11.62 -22.24,-20.61 q -7.35,-10.62 -6.34,-23.26 1.35,-16.96 4.62,-33.24 c 4.68,-23.26 8.91,-42.01 10.33,-63.19 q 0.21,-3.2 0.17,-11.08 c -0.04,-7.39 -1.23,-13.65 -1.83,-21.17 -2.06,-25.76 -14.12,-53.78 -30.21,-74.01 Q 548.8,102.55 538.8,92.77 529.29,83.47 522.45,77.58 502.79,60.66 478.32,51.69 C 457.64,44.11 436.55,38.9 414.99,38.11 c -11.52,-0.42 -24.32,-0.6 -35.77,0.94 q -13.1,1.76 -31.12,7.03 c -25.35,7.42 -47.19,17.96 -67.47,35.04 q -18.31,15.41 -28.69,30.3 -5.32,7.63 -8.94,12.45 c -1.93,2.57 -4.08,4.51 -6.77,5.65 -35.87,15.11 -66.31,41.08 -91.49,70.73 q -27.49,32.37 -39.77,70.91 c -3.37,10.57 -5.45,20.93 -7.23,31.35 q -0.88,5.19 -0.78,9.25 c 0.14,5.49 3.94,7.45 9.07,10.2 q 8.14,4.38 13.34,5.72 15.16,3.88 25.13,6.76 c 18.25,5.28 33.14,8.39 48.65,8.72 4.47,0.09 8.84,0.64 13.35,0.8 q 6.14,0.22 26.99,-0.08 13.42,-0.19 40.65,-6.19 1.27,-0.28 3,-0.38 a 0.45,0.44 -80 0 1 0.43,0.62 q -3.81,8.68 -8.44,16.45 -11.05,18.49 -18.15,30.83 -11.94,20.77 -20.68,42.84 -15.43,39.01 -17.06,81.12 -0.61,15.66 1.28,29.58 c 3.05,22.6 8.11,43.77 17.33,64.38 q 17.31,38.67 45.69,69.09 37.44,40.14 82.05,65.44 26.67,15.12 54.09,26.33 a 2.11,2.11 0 0 1 1.21,1.36 q 4.41,15.48 10.07,30.24 1.61,4.19 6.36,13.12 0.87,1.63 0.39,4.01 -1.82,9.03 -2.77,14.38 a 0.98,0.98 0 0 1 -0.94,0.81 c -6.05,0.15 -12.73,1.29 -18.05,1.1 -3.72,-0.14 -9.05,0.05 -14.26,-0.35 q -5.48,-0.42 -21.19,-1.89 -5.98,-0.57 -10.08,-1.37 -10.94,-2.14 -39.18,-7.62 -35.85,-6.96 -70.75,0.68 c -23.29,5.09 -47.09,12 -73.15,8.5 q -11.81,-1.59 -17.7,-3.08 -26,-6.58 -29.99,-7.51 -29.16,-6.77 -58.91,-3.22 c -17.54,2.09 -36.53,8.11 -52.45,15.37 -4.39,2 -10.25,4.43 -9.17,9.37 a 1.16,1.16 0 0 0 0.78,0.84 q 2.05,0.64 5.12,-0.44 18.61,-6.58 34.31,-10.91 c 22.22,-6.13 46.17,-7.2 69.7,-2.71 q 14.53,2.77 26.84,6.05 16.92,4.5 22.93,5.45 30,4.77 59.56,-2.31 c 26.31,-6.3 51.86,-11.61 79.18,-7.9 17.1,2.32 27.64,4.74 50.02,9.44 q 9.83,2.06 24.79,2.62 2.32,0.08 14.42,0.62 11.92,0.52 24.82,-1.93 a 0.46,0.46 0 0 1 0.53,0.57"
         id="path1" /><path
         stroke="#808080"
         vector-effect="non-scaling-stroke"
         d="m 281.12,182.37 q 1.7,-6.06 3,-10.52 4.11,-14.04 12.97,-26.75 c 15.57,-22.31 38.94,-39.75 65.48,-46.69 q 20.63,-5.4 40.18,-3.88 12.61,0.98 18.92,2.35 11.72,2.53 26.11,8.36 8.94,3.63 24.29,12.63 2.58,1.52 28.13,15.93 17.69,9.98 33.21,15.73 c 9.16,3.4 15.92,4.84 25.76,6.44 a 1.59,1.59 0 0 0 1.82,-1.83 q -0.67,-4 -2.85,-8.76 C 547.13,121.28 530.71,100.7 509.16,85.5 493.07,74.16 477.13,65.72 458.94,60.88 q -24.1,-6.41 -49.95,-7.8 -9.53,-0.51 -27.06,1.04 -37.82,3.33 -69.02,21.8 -26.34,15.6 -46.95,39.05 -5.25,5.97 -9.87,13.05 a 0.43,0.42 -61.6 0 0 0.18,0.62 c 20.38,9.19 23.42,34.14 24.27,53.66 a 0.3,0.29 51.7 0 0 0.58,0.07"
         id="path2" /><path
         stroke="#808080"
         vector-effect="non-scaling-stroke"
         d="m 563.82,165.06 q -4.48,0.38 -8.59,-0.31 -19.26,-3.22 -36.86,-11.14 c -18.9,-8.51 -36.14,-18.12 -54.48,-28.46 q -11.89,-6.7 -17.31,-9.01 c -26.35,-11.22 -53.35,-14.53 -81.14,-7.24 -22.55,5.9 -42.31,19.63 -57.04,38.31 q -6.54,8.29 -10.31,16.14 c -3.41,7.11 -6.23,15.71 -8.96,24.16 -2.77,8.58 -4.43,18.92 -3.75,27.58 q 0.95,12.18 2.57,22.72 1.24,8.05 5.39,22.16 3.36,11.46 6.63,23.31 0.89,3.21 3.45,5.89 7.65,8 17.28,14.72 10.55,7.37 19.27,11.61 c 22.58,11.01 48.5,14.47 73.26,9.5 18.56,-3.72 36.9,-8.74 53.82,-17.33 14.69,-7.45 27.54,-15.35 39.91,-25.72 13.15,-11.04 24.83,-22.46 34.26,-36.34 q 3.03,-4.48 10.2,-16.95 7.67,-13.37 9.29,-17.47 c 6.27,-15.94 8.42,-29.78 3.84,-45.63 a 0.71,0.7 -10.2 0 0 -0.73,-0.5"
         id="path3" /><path
         stroke="#808080"
         vector-effect="non-scaling-stroke"
         d="m 210.43,278.14 c 14.27,-3.03 27.77,-5.89 42.83,-11.04 q 16.66,-5.7 23.61,-8.28 a 0.63,0.62 74.8 0 0 0.4,-0.71 q -3.16,-16.48 -5.15,-31.42 c -1.47,-10.96 -1.53,-22.26 -2.53,-33.87 Q 268.62,181.51 265,165.26 c -2.34,-10.49 -7.19,-29.02 -22.4,-23.24 -5.35,2.03 -12.03,4.76 -14.27,9.78 q -8.33,18.61 -12.78,38.71 -2.75,12.42 -5.3,30.93 c -1.31,9.49 -1.3,17.24 -1.82,29.3 q -0.57,13.13 1.42,26.99 a 0.48,0.48 0 0 0 0.58,0.41"
         id="path4" /><path
         stroke="#808080"
         vector-effect="non-scaling-stroke"
         d="m 212.96,159.41 q -0.61,0.24 -1.17,0.63 -6.7,4.64 -23.66,18.37 -24.56,19.88 -44.2,48.14 c -14.72,21.19 -23.91,44.09 -28.39,68.96 q -1.21,6.72 -2.23,11.74 a 0.45,0.45 0 0 0 0.57,0.52 c 17.67,-5.19 34.75,-11.66 54.07,-18.41 8.9,-3.12 18.63,-5.5 28.06,-7.63 a 1.36,1.35 -7.5 0 0 1.06,-1.37 c -0.66,-16.62 -1.15,-31.83 0.23,-48.61 q 1.3,-15.85 6.32,-35.62 5.08,-20.04 9.5,-36.57 a 0.12,0.12 0 0 0 -0.16,-0.15"
         id="path5" /><path
         stroke="#808080"
         vector-effect="non-scaling-stroke"
         d="m 625.35,389.55 q -0.94,-1.09 -1.65,-1.53 -9.68,-5.98 -25.31,-14.91 C 586,366.03 572.94,356.17 565.56,344.84 q -3.56,-5.46 -6.59,-13.3 c -4.17,-10.79 -4.16,-23.72 -2.49,-34.8 q 2.19,-14.55 6.37,-34.7 c 3.68,-17.77 5.85,-30.9 7.73,-46.49 a 0.12,0.12 0 0 0 -0.23,-0.06 q -4.05,9.46 -9.94,19.43 c -8.2,13.85 -14.48,23.77 -24.15,34.16 -6.08,6.53 -13.99,14.6 -20.69,20 -13.64,10.98 -29.8,22.08 -45.36,29.41 -18.43,8.67 -38.2,14.48 -58.22,17.67 -28.55,4.54 -56.54,0.08 -81.77,-14.02 q -15.63,-8.74 -27.81,-21.36 a 0.25,0.24 -67.9 0 0 -0.42,0.18 c 0.04,3.52 0.24,6.92 -0.31,10.72 q -3.23,22.38 -15.02,42.27 -2.57,4.33 -13.15,21.66 a 0.44,0.44 0 0 0 0.29,0.66 c 11.38,2.42 20.61,4.45 31.34,8.85 q 15.16,6.22 26.54,11.73 7.29,3.52 11.6,6.41 33.76,22.66 57.78,56.64 4.98,7.03 12.37,19.09 21.1,34.4 24.72,40.38 0.29,0.49 0.54,0.69 a 0.23,0.23 0 0 0 0.37,-0.22 c -3.37,-18.59 -4.38,-39.31 -0.65,-58.62 q 8.36,-43.3 43.64,-68.69 c 24.85,-17.88 58.74,-21.26 88.01,-16.79 q 27.15,4.15 55.09,14.1 a 0.18,0.18 0 0 0 0.2,-0.29"
         id="path6" /><path
         stroke="#808080"
         vector-effect="non-scaling-stroke"
         d="m 280.35,270.49 q -30.77,11.29 -61.61,18.08 a 0.53,0.53 0 0 0 -0.33,0.8 q 3.2,5.11 6.49,8.49 10.78,11.07 27.26,23.92 5.56,4.33 12.82,3.29 9.44,-1.34 17.41,-2.77 a 1.26,1.26 0 0 0 1.01,-1.02 q 0.5,-3.04 1.3,-5.73 c 1.31,-4.36 1.69,-7.67 1.56,-11.56 q -0.55,-16.47 -5.49,-33.28 a 0.32,0.32 0 0 0 -0.42,-0.22"
         id="path7" /><path
         stroke="#808080"
         vector-effect="non-scaling-stroke"
         d="m 240.64,327.6 q -8.39,-5.74 -16.79,-14.03 c -7.5,-7.42 -13.45,-13.05 -18.75,-21.1 a 0.78,0.76 -22.6 0 0 -0.82,-0.33 q -12.95,2.82 -24.02,6.13 -25.05,7.5 -50.34,16.51 a 0.42,0.42 0 0 0 0.02,0.79 c 13.13,3.97 27.86,8.56 42.23,10.33 13.09,1.62 24.35,2.16 36.58,2.84 q 16.59,0.93 31.78,-0.71 a 0.24,0.24 0 0 0 0.11,-0.43"
         id="path8" /><path
         stroke="#808080"
         vector-effect="non-scaling-stroke"
         d="m 532.49,778.56 c -4.04,-6.43 -7.87,-12.98 -11.51,-21.62 q -2.14,-5.07 -6.17,-12.17 c -1.74,-3.08 -1.1,-7.04 3.08,-7.25 a 2.25,2.15 55.4 0 1 1.02,0.21 q 3.85,1.81 6.58,5.8 1.33,1.95 9.77,15.71 c 7.69,12.56 17.82,24.18 27.4,34.59 7.22,7.84 16.73,14.65 27.51,15.97 q 7.1,0.87 15.75,-0.46 c 13.6,-2.1 25.31,-12.3 31.47,-23.71 q 7.97,-14.75 12.33,-22.68 c 1.69,-3.06 3,-6.96 4.27,-9.44 1.56,-3.06 4.45,-2.8 6.03,-0.22 2.08,3.4 0.6,8.7 -0.85,12.39 q -3.16,8.13 -7.47,17.72 a 0.3,0.3 0 0 0 0.31,0.42 q 33.64,-2.94 67.99,-8.4 c 21.05,-3.35 38.86,-9.45 60.5,-16.45 q 5.85,-1.89 10.8,-4.71 c 2.3,-1.32 5.18,-2.18 7.02,-1.3 q 8.48,4.1 11.87,4.65 10.75,1.76 21.75,4.71 c 21.29,5.73 40.05,7.45 60.58,8.07 q 9.89,0.29 19.59,-1.9 a 0.54,0.53 60.1 0 0 0.24,-0.91 q -9.85,-9.36 -20.26,-18.67 -8.55,-7.64 -39.08,-31.68 -3.07,-2.42 -7.03,-1.29 c -6.69,1.92 -12.79,4.23 -19.69,5.85 -20.44,4.79 -40.41,7.02 -61.06,5.39 -25.57,-2.02 -53.68,-4.76 -77.32,-10.09 -9.19,-2.07 -26.64,-5.92 -39.77,-9.83 -54.78,-16.31 -104.81,-42.04 -147.95,-79.55 -22.47,-19.55 -40.52,-43.13 -51.49,-70.81 -2.86,-7.21 -5.31,-12.57 -8.27,-17.55 -4.73,-7.95 -11.72,-17.93 -16.18,-26.61 q -1.29,-2.5 -21.51,-36.06 -4.37,-7.25 -7.71,-11.39 c -20.4,-25.23 -42.24,-46.38 -72.31,-60.93 q -12.98,-6.28 -15.66,-7.39 -17.3,-7.16 -38.7,-11.93 a 0.52,0.51 22.6 0 0 -0.53,0.21 c -15,22.57 -25.49,48.91 -32.82,75.23 q -2.71,9.74 -5.4,26.14 c -0.78,4.75 -0.61,9.47 -1.11,14.46 q -0.62,6.29 -0.67,10.86 -0.31,24.5 4.68,47.06 4.48,20.26 14.5,42.17 c 7.88,17.25 19.84,35.08 31,48.57 10.65,12.87 21.77,25.65 34.68,36.51 q 13.06,10.98 25.96,20.34 18.54,13.44 38.33,22.69 24.25,11.34 46.19,21.32 9.25,4.2 17.68,6.82 9.95,3.08 18.07,5.81 9.29,3.13 27.57,7.06 33.02,7.11 34.32,7.37 6.18,1.26 11.37,1.44 a 0.35,0.35 0 0 0 0.31,-0.54"
         id="path9" /><path
         stroke="#808080"
         vector-effect="non-scaling-stroke"
         d="m 789.76,711.03 q -0.05,-0.02 -6.6,-1.18 -2.75,-0.49 -6.56,-1.49 -21.11,-5.53 -42.88,-14.6 c -14.71,-6.12 -27.36,-14.26 -40.9,-23.48 -2.93,-1.99 -11.39,-7.91 -11.85,-11.5 -0.58,-4.57 3.75,-4.23 6.19,-2.71 7.63,4.74 17.31,9.41 25.6,14.2 q 12.18,7.05 17.04,9.7 16.9,9.2 39.09,15.15 16.7,4.48 24.15,5.91 c 5.67,1.1 13.58,1.68 17.96,2.18 13.39,1.53 27.71,0.71 40.23,-2.01 q 7.88,-1.71 12.78,-4.19 9.48,-4.81 17.84,-7.92 a 0.19,0.19 0 0 0 -0.04,-0.37 q -44.45,-5.3 -84.31,-24.98 -20.99,-10.36 -21.76,-10.75 -16.77,-8.44 -30.71,-20.74 c -2.56,-2.25 -5.79,-5.05 -5.02,-8.4 a 2.04,1.91 11.2 0 1 2.29,-1.43 c 3.7,0.61 6.47,2.99 10.71,5.98 q 2.68,1.88 6.19,3.93 c 9.6,5.62 20.94,12.98 30.71,17.79 13.63,6.7 29.17,12.7 42.64,17.15 q 9.77,3.22 20.68,5.01 25.64,4.2 39.85,5.52 4.14,0.39 6.81,0.2 a 0.5,0.49 -28.8 0 0 0.26,-0.89 c -6.54,-4.95 -14.45,-8.99 -21.56,-12.85 q -5.77,-3.13 -8.31,-4.96 c -11.74,-8.42 -22.63,-18.13 -33.76,-29.15 -16.69,-16.53 -30.58,-34.91 -44.96,-54.28 q -7.79,-10.51 -19.75,-29.81 -6.31,-10.18 -25.2,-39.19 -15.36,-23.59 -33.92,-43.32 -11.13,-11.83 -22.72,-23.27 c -21.82,-21.55 -50.13,-36.53 -78.74,-44.6 q -18.34,-5.17 -44.46,-9.27 -26.16,-4.11 -52.71,3.38 -28.92,8.16 -45.87,30.91 c -15.9,21.33 -22.44,46.55 -21.06,72.8 q 0.73,14.13 2.64,24.76 6.93,38.81 31.42,69.59 c 19.68,24.74 45.83,44.34 72.85,61.13 q 35.49,22.07 75.51,37.2 28.55,10.79 56.11,16.15 30.27,5.9 66.14,9.84 c 11.24,1.23 22.13,1.06 32.02,0.19 q 3.88,-0.34 5.93,-0.91 a 0.22,0.22 0 0 0 0.01,-0.42"
         id="path10" /><path
         stroke="#808080"
         vector-effect="non-scaling-stroke"
         d="m 431.1,771.14 q 3.64,12.78 9.88,25.43 c 1.42,2.85 2.82,4.4 5.41,5.54 q 7.71,3.38 16.94,2.91 7.11,-0.36 11.73,-6.77 3.39,-4.71 8.6,-12.55 a 0.39,0.39 0 0 0 -0.23,-0.59 q -17.3,-4.02 -36.2,-10.02 c -5.05,-1.61 -10.4,-2.72 -15.75,-4.32 a 0.3,0.3 0 0 0 -0.38,0.37"
         id="path11" /><path
         stroke="#808080"
         vector-effect="non-scaling-stroke"
         d="m 572.46,837.04 2.49,-15.99 a 0.7,0.69 15.8 0 0 -0.42,-0.74 q -8.07,-3.36 -14.75,-9.62 -7.91,-7.43 -12.79,-12.47 a 5.63,5.62 69.9 0 0 -3.65,-1.7 q -9.6,-0.69 -19.03,-2.37 c -14.25,-2.56 -21.02,-4.11 -27.66,-4.44 a 1.97,1.96 12.6 0 0 -1.9,1.2 c -3.53,8.4 -8.72,14.19 -15.47,21.88 a 7.4,7.37 71.2 0 0 -1.71,3.49 l -3.84,19.76 a 0.8,0.8 0 0 0 0.73,0.95 q 8.32,0.62 12.53,1.12 c 10.11,1.22 20.45,1.26 28.88,0.56 q 9.41,-0.79 16.3,-0.74 12.79,0.1 39.58,-0.27 a 0.74,0.73 -85.7 0 0 0.71,-0.62"
         id="path12" /><path
         stroke="#808080"
         vector-effect="non-scaling-stroke"
         d="m 288.04,897.86 q 6.56,0.04 19.15,-0.67 c 7.71,-0.43 15.28,-0.93 20.75,1.14 a 7.83,7.78 -41.6 0 0 4.63,0.26 q 10.27,-2.6 18.77,-4.29 7.16,-1.42 13.76,-4.18 1.12,-0.47 1.66,0.07 a 1.35,1.31 52.1 0 1 -0.23,2.09 q -3.74,2.21 -8.24,4.01 -13.1,5.23 -25.44,10.03 a 1.69,1.65 -2.8 0 0 -1,1.08 q -1.71,5.61 -5.39,11.22 a 0.24,0.24 0 0 0 0.25,0.37 q 14.52,-3.05 28.54,-3.72 c 2.56,-0.12 4.78,-1.26 7.23,-0.72 5.16,1.14 13.34,-1.81 17.34,-3.76 q 12.96,-6.3 22.39,-10.67 a 2.14,2.13 -35.6 0 1 2.37,0.39 l 0.08,0.06 a 1.12,1.12 0 0 1 -0.21,1.83 l -36.95,19.84 a 0.75,0.75 0 0 0 -0.31,1.01 l 4.86,9.06 a 1.45,1.44 -20.5 0 0 1.59,0.72 q 5.24,-1.17 11.43,-3.43 29.04,-10.63 54.9,-26.86 c 9.18,-5.76 16.06,-10 16.83,-22.01 q 0.09,-1.41 0.38,-17.22 0.04,-2 1.91,-14.45 0.94,-6.31 2.98,-14.26 1.22,-4.78 3.54,-15.09 a 0.45,0.44 -83.9 0 0 -0.44,-0.55 q -11,0.1 -21.43,-3.18 a 0.81,0.79 14.3 0 0 -1.03,0.6 c -2.19,11.16 -3.26,21.64 -6.86,33.22 q -1.52,4.88 -2.89,11.16 c -0.8,3.64 -6.14,4.27 -9.46,4.57 -7.58,0.69 -18.11,0.13 -25.61,1.29 q -5.44,0.84 -12.07,2.29 -13.65,2.97 -36.99,7.8 -7.43,1.53 -17,3.13 -14.46,2.41 -29.19,8.34 -8.34,3.36 -14.79,8.96 a 0.3,0.29 -65.3 0 0 0.19,0.52"
         id="path13" /><path
         stroke="#808080"
         vector-effect="non-scaling-stroke"
         d="m 454.52,929.87 c 6.25,1.17 14.39,0.64 20.66,-0.26 7.39,-1.07 15.97,0.39 22.25,2.13 a 2.82,2.81 38.9 0 0 2.09,-0.22 c 6.56,-3.42 13.05,-6.49 20.79,-9.3 q 6.25,-2.28 13.65,-5.83 a 1.17,1.16 -26.7 0 1 1.53,0.5 l 0.16,0.3 a 1.53,1.53 0 0 1 -0.47,1.98 c -6.81,4.76 -14.07,7.5 -21.45,11.84 q -10.6,6.24 -13.98,8.25 c -6.26,3.72 -7.83,10.65 -9.56,18.38 a 0.42,0.42 0 0 0 0.47,0.51 q 2.61,-0.37 4.48,-1 13,-4.36 26.38,-7.34 3.21,-0.71 17.98,-5.41 0.59,-0.19 2.84,0.58 a 1.82,1.79 40.5 0 0 1.39,-0.1 c 5.43,-2.78 10.88,-6.56 15.23,-9.93 q 10.65,-8.22 16.62,-12.29 a 1.45,1.44 -38.9 0 1 1.85,0.19 l 0.04,0.03 a 1.22,1.22 0 0 1 -0.08,1.77 q -3.36,2.87 -5.98,5.98 c -6.72,7.97 -15.02,14.54 -24,19.51 a 1.03,1.01 64.9 0 0 -0.45,1.27 q 3.01,7.41 5.12,16.85 a 1,1 0 0 0 1.42,0.67 c 10.64,-5.35 18.4,-12.45 28.97,-21.96 q 10.11,-9.11 13.97,-14.03 5.96,-7.59 7.76,-11.07 5.36,-10.32 4.93,-23.87 c -0.43,-13.24 -1.58,-23.49 -0.91,-35.16 0.9,-15.68 1.52,-27.01 3.91,-39.6 a 0.48,0.48 0 0 0 -0.56,-0.56 q -12.98,2.46 -25.71,0.37 a 0.34,0.33 8.1 0 0 -0.39,0.29 q -1.31,11.37 -2.77,27.45 c -0.8,8.88 -0.58,19.14 -1.8,27.64 q -0.43,2.95 -2.33,3.9 c -6.15,3.05 -12.2,5.74 -19.29,7.2 -8.43,1.75 -19.04,4.56 -28.95,6.42 q -8.37,1.56 -13.06,3.08 c -22.43,7.26 -46.12,14.14 -62.93,30.24 a 0.35,0.35 0 0 0 0.18,0.6"
         id="path14" /><path
         stroke="#808080"
         vector-effect="non-scaling-stroke"
         d="m 388.7435,152.1659 a 41.41,37.18 -93.9 0 0 -34.2774,43.8429 41.41,37.18 -93.9 0 0 39.9104,38.7853 41.41,37.18 -93.9 0 0 34.2774,-43.8429 41.41,37.18 -93.9 0 0 -39.9104,-38.7853"
         id="path15" /><path
         stroke="#808080"
         vector-effect="non-scaling-stroke"
         d="m 386.35,223.86 q 18.95,2.41 27.69,-13.95 8.45,-15.8 0.3,-32.07 -5.49,-10.95 -17.79,-14.69 c -8.03,-2.44 -16.42,2.03 -22.52,7.12 a 0.45,0.45 0 0 0 0.35,0.79 q 7.94,-1.03 14.44,2.41 c 14.05,7.44 19.28,25.14 11.27,38.95 -3.23,5.58 -8.19,8.32 -13.82,10.95 a 0.26,0.26 0 0 0 0.08,0.49"
         id="path16" /></g><path
       fill="#ffffff"
       d="M 243.94583,7.408335 V 278.34166 H -26.987498 V 7.408335 Z M 85.756751,228.93867 l -1.023938,3.82058 a 0.3889375,0.38629166 6.6 0 1 -0.365125,0.28839 c -1.688042,0.0423 -3.429,-0.005 -5.222875,0.2593 q -4.3815,0.64558 -5.090583,0.81491 -7.01675,1.66159 -14.030854,2.71463 c -4.704292,0.70379 -9.548812,2.50825 -13.120687,5.51391 q -0.783167,0.65882 -1.497542,1.8124 c -0.642938,1.03981 -0.661458,2.79135 0.545042,3.51896 1.857375,1.12183 3.780895,0.57414 5.815541,0.66939 q 2.029354,0.0953 4.519083,-0.14816 a 0.10847917,0.10847917 0 0 1 0.10848,0.15875 c -1.127125,2.159 -1.177396,4.56406 1.452562,5.30225 0.550333,0.1561 1.566333,0.14552 2.018771,0.0741 1.865312,-0.28839 4.585229,-0.76729 6.836833,-0.87048 a 0.47624999,0.47624999 0 0 1 0.455083,0.27517 c 0.640292,1.35731 1.240896,2.77019 2.116667,3.70946 q 1.150938,1.23031 2.905125,0.73289 3.4925,-0.99483 7.540625,-2.51354 2.846917,-1.06892 6.770687,-3.39196 c 2.296584,-1.3626 3.087688,-1.79123 5.431896,-3.05858 2.2225,-1.20121 4.616979,-3.03477 5.222875,-5.61446 q 0.365125,-1.56633 0.381,-2.50296 0.08202,-4.49527 0.423333,-8.83443 a 0.22754166,0.22754166 0 0 1 0.261938,-0.20638 q 3.635372,0.5715 7.424212,0.81492 0.94985,0.0608 1.71979,0.0212 5.52185,-0.27781 5.67266,-0.28839 1.90236,-0.14817 4.13544,-0.09 c 2.10873,0.0529 4.56671,-0.10848 6.84742,0.0238 a 0.1190625,0.12170833 6.3 0 1 0.11112,0.14023 c -0.15081,1.00277 -0.27516,1.58486 -0.28575,2.4765 -0.0212,1.48431 -0.045,2.53736 -0.13758,3.58511 q -0.0265,0.30956 -0.6059,0.45243 -3.91583,0.9525 -8.96672,1.9394 -5.74411,1.12183 -12.82965,3.89467 -1.804459,0.70643 -5.392209,2.74902 -2.960687,1.68539 -5.074708,3.91583 c -1.232958,1.3044 -2.225146,2.58233 -1.494896,4.32858 0.719667,1.72509 4.669896,1.80182 6.135688,1.64571 q 1.486958,-0.15875 4.754565,-0.254 a 0.04233333,0.04233333 0 0 1 0.0397,0.0635 c -0.820204,1.46315 -2.137829,4.78631 -0.669391,6.06954 1.034521,0.90488 1.931461,1.53194 3.373441,1.41552 q 1.42875,-0.11641 2.62466,-0.49741 4.77573,-1.52136 9.12284,-2.65907 a 0.15875,0.16139583 77.1 0 1 0.19579,0.12171 q 0.61648,2.80723 2.00025,5.13027 0.71966,1.2065 2.13519,0.94986 1.71714,-0.30956 2.94216,-1.03717 c 3.11679,-1.84414 5.96636,-4.24392 8.87413,-6.88446 q 2.02141,-1.83885 3.00302,-3.15912 1.05568,-1.41552 2.25954,-3.73063 c 1.49225,-2.86808 1.91558,-6.56696 1.66687,-9.73402 -0.30162,-3.87085 -0.5715,-6.29708 -0.36248,-9.89806 a 0.1508125,0.1508125 0 0 1 0.15346,-0.14023 c 2.96069,0.0609 6.23888,0.13494 9.525,-0.39952 q 3.77825,-0.61383 5.75469,-1.11919 4.74133,-1.2065 6.78392,-1.67746 6.29443,-1.44727 13.06248,-0.96837 c 5.60916,0.39423 10.17852,1.32292 16.67404,2.62731 q 4.32329,0.87048 7.14375,0.96308 4.87627,0.15875 6.73893,-0.0185 c 5.55096,-0.52387 11.10986,-1.97908 16.08932,-2.8866 q 5.18054,-0.94456 10.23673,-0.73554 3.56923,0.14552 7.8105,1.33614 c 1.1086,0.30957 2.27806,0.56886 2.67758,-0.68791 a 0.66145832,0.83872916 22.8 0 0 -0.24871,-0.90223 q -0.62442,-0.38365 -1.47373,-0.71438 -3.80735,-1.48166 -7.90839,-1.72773 -5.842,-0.35454 -12.19465,0.80963 -1.82827,0.33602 -9.84515,1.97379 c -5.55889,1.13506 -10.76589,1.06098 -16.6026,0.22225 -2.83104,-0.40746 -6.19125,-1.20121 -9.57792,-1.8415 q -4.73075,-0.89429 -10.57275,-1.27794 c -4.13014,-0.26987 -8.2497,0.18786 -12.23168,0.97102 -3.1115,0.61119 -6.91621,1.7489 -10.33463,2.42359 q -5.09323,1.00541 -11.20775,0.70908 a 0.15875,0.16139583 2.8 0 1 -0.15081,-0.16933 l 0.33602,-5.59065 a 0.45772916,0.45772916 0 0 1 0.23019,-0.36777 c 1.86002,-1.03981 3.10091,-2.47121 4.44764,-4.11692 0.30427,-0.37041 0.7673,-0.70114 1.22238,-0.7567 q 0.88371,-0.10848 5.50862,-0.46832 2.96598,-0.23018 8.67569,-0.96308 10.33198,-1.32556 19.89667,-5.23081 2.45004,-1.00013 4.67519,-2.36802 a 0.68527082,0.69056249 41.7 0 1 0.64293,-0.0397 q 8.26559,3.77296 17.45721,4.73869 c 3.58775,0.37835 7.04056,0.74083 10.63625,0.47095 q 2.96069,-0.2196 5.22817,-1.38377 c 1.70921,-0.87577 2.94481,-2.75431 1.4896,-4.5376 q -1.34408,-1.64835 -2.87602,-3.01096 -5.64885,-5.02444 -11.93535,-9.89541 -0.4445,-0.34396 -0.79375,-0.70909 a 0.079375,0.079375 0 0 1 0.0265,-0.127 q 5.81819,-2.42358 11.97769,-5.80231 c 1.01865,-0.56092 2.67759,-2.10344 2.15106,-3.3364 q -0.26458,-0.62177 -1.06362,-1.19591 -1.05304,-0.75671 -4.37885,-2.62732 c -1.95792,-1.10331 -4.15132,-2.62731 -6.18596,-4.26243 -5.25463,-4.22275 -10.50925,-9.19427 -14.86165,-14.58119 q -4.08781,-5.05619 -7.82902,-10.64419 c -2.4765,-3.69358 -5.81289,-9.44827 -8.01423,-12.73439 q -9.144,-13.6525 -20.9841,-23.92363 c -2.90777,-2.52148 -6.84742,-5.43189 -11.02254,-7.95337 q -2.83898,-1.7145 -10.7659,-6.82361 c -2.62731,-1.69333 -4.23862,-3.074455 -5.88433,-5.453059 q -1.94469,-2.809875 -1.67746,-6.154209 0.35719,-4.487333 1.22237,-8.79475 c 1.23825,-6.154208 2.35744,-11.115145 2.73315,-16.71902 q 0.0556,-0.846667 0.045,-2.931584 c -0.0106,-1.95527 -0.32544,-3.611562 -0.48419,-5.601229 -0.54504,-6.815666 -3.73591,-14.229291 -7.99306,-19.581812 Q 118.21583,34.541355 115.57,31.953731 113.05381,29.493106 111.24406,27.93471 106.04235,23.45796 99.568,21.084647 c -5.471583,-2.005541 -11.051645,-3.38402 -16.756062,-3.593041 -3.048,-0.111125 -6.434666,-0.15875 -9.464146,0.248708 q -3.466041,0.465667 -8.233833,1.860021 c -6.707187,1.963208 -12.485687,4.751916 -17.851437,9.271 q -4.844521,4.077229 -7.590896,8.016875 -1.407583,2.01877 -2.365375,3.294062 c -0.510646,0.679979 -1.0795,1.193271 -1.791229,1.494896 -9.490604,3.997854 -17.544521,10.869083 -24.206729,18.713979 Q 4.0348974,68.955709 0.78581415,79.152751 C -0.10583167,81.949397 -0.656165,84.69048 -1.1271233,87.447438 q -0.2328334,1.373188 -0.206375,2.447396 c 0.037042,1.452562 1.0424583,1.971146 2.3997708,2.69875 q 2.1537083,1.158875 3.5295416,1.513417 4.0110833,1.026583 6.6489789,1.788583 c 4.828646,1.397 8.768292,2.219854 12.871979,2.307167 1.182688,0.02381 2.338917,0.169333 3.532188,0.211666 q 1.624541,0.05821 7.141104,-0.02117 3.550708,-0.05027 10.755312,-1.637771 0.336021,-0.07408 0.79375,-0.100542 a 0.11641667,0.1190625 10 0 1 0.113771,0.164042 q -1.008063,2.296583 -2.233083,4.352404 -2.923646,4.89214 -4.802188,8.1571 -3.159125,5.4954 -5.471583,11.33475 -4.082521,10.3214 -4.513792,21.463 -0.161396,4.14337 0.338667,7.82637 c 0.806979,5.97959 2.145771,11.58082 4.585229,17.03388 q 4.579938,10.23144 12.088812,18.28006 9.906,10.62038 21.709063,17.31433 7.056437,4.0005 14.311312,6.96648 a 0.55827083,0.55827083 0 0 1 0.320146,0.35984 q 1.166812,4.09575 2.664354,8.001 0.425979,1.1086 1.68275,3.47133 0.230187,0.43127 0.103187,1.06098 -0.481541,2.38919 -0.732895,3.80471 a 0.25929166,0.25929166 0 0 1 -0.248709,0.21431 c -1.600729,0.0397 -3.368146,0.34131 -4.775729,0.29104 -0.98425,-0.037 -2.394479,0.0132 -3.772958,-0.0926 q -1.449917,-0.11113 -5.606521,-0.50007 -1.582208,-0.15081 -2.667,-0.36247 -2.894542,-0.56621 -10.366375,-2.01613 -9.485312,-1.8415 -18.71927,0.17992 c -6.162146,1.34673 -12.459229,3.175 -19.354271,2.24896 q -3.124729,-0.42069 -4.683125,-0.81492 -6.8791665,-1.74096 -7.9348539,-1.98702 -7.71524995,-1.79123 -15.586604,-0.85196 c -4.6407921,0.55298 -9.6652291,2.14577 -13.8773961,4.06665 -1.16152,0.52916 -2.711979,1.1721 -2.426229,2.47914 a 0.30691666,0.30691666 0 0 0 0.206375,0.22225 q 0.542396,0.16933 1.354667,-0.11642 4.923896,-1.74095 9.077854,-2.8866 c 5.8790416,-1.6219 12.21581233,-1.905 18.4414581,-0.71702 q 3.8443958,0.7329 7.1014169,1.60073 4.47675,1.19062 6.066895,1.44198 7.9375,1.26206 15.758584,-0.61119 c 6.961187,-1.66687 13.721291,-3.07181 20.949708,-2.09021 4.524375,0.61384 7.313083,1.25413 13.234458,2.49767 q 2.600854,0.54504 6.559021,0.69321 0.613833,0.0212 3.815291,0.16404 3.153833,0.13758 6.566958,-0.51065 a 0.12170833,0.12170833 0 0 1 0.14023,0.15082 z"
       id="path17"
       style="stroke-width:0.264583" /><path
       fill="#000000"
       d="m 85.756751,228.93867 a 0.12170833,0.12170833 0 0 0 -0.14023,-0.15082 q -3.413125,0.64823 -6.566958,0.51065 -3.201458,-0.14288 -3.815291,-0.16404 -3.958167,-0.14817 -6.559021,-0.69321 c -5.921375,-1.24354 -8.710083,-1.88383 -13.234458,-2.49767 -7.228417,-0.9816 -13.988521,0.42334 -20.949708,2.09021 q -7.821084,1.87325 -15.758584,0.61119 -1.590145,-0.25136 -6.066895,-1.44198 -3.2570211,-0.86783 -7.1014169,-1.60073 c -6.22564576,-1.18798 -12.5624165,-0.90488 -18.4414581,0.71702 q -4.153958,1.14565 -9.077854,2.8866 -0.812271,0.28575 -1.354667,0.11642 a 0.30691666,0.30691666 0 0 1 -0.206375,-0.22225 c -0.28575,-1.30704 1.264709,-1.94998 2.426229,-2.47914 4.212167,-1.92088 9.236604,-3.51367 13.8773961,-4.06665 q 7.87135405,-0.93927 15.586604,0.85196 1.0556874,0.24606 7.9348539,1.98702 1.558396,0.39423 4.683125,0.81492 c 6.895042,0.92604 13.192125,-0.90223 19.354271,-2.24896 q 9.233958,-2.02142 18.71927,-0.17992 7.471833,1.44992 10.366375,2.01613 1.084792,0.21166 2.667,0.36247 4.156604,0.38894 5.606521,0.50007 c 1.378479,0.10583 2.788708,0.0556 3.772958,0.0926 1.407583,0.0503 3.175,-0.25135 4.775729,-0.29104 a 0.25929166,0.25929166 0 0 0 0.248709,-0.21431 q 0.251354,-1.41552 0.732895,-3.80471 0.127,-0.62971 -0.103187,-1.06098 -1.256771,-2.36273 -1.68275,-3.47133 -1.497542,-3.90525 -2.664354,-8.001 a 0.55827083,0.55827083 0 0 0 -0.320146,-0.35984 q -7.254875,-2.96598 -14.311312,-6.96648 -11.803063,-6.69395 -21.709063,-17.31433 -7.508874,-8.04862 -12.088812,-18.28006 c -2.439458,-5.45306 -3.77825,-11.05429 -4.585229,-17.03388 q -0.500063,-3.683 -0.338667,-7.82637 0.431271,-11.1416 4.513792,-21.463 2.312458,-5.83935 5.471583,-11.33475 1.878542,-3.26496 4.802188,-8.1571 1.22502,-2.055817 2.233083,-4.3524 a 0.11641667,0.1190625 10 0 0 -0.113771,-0.164042 q -0.457729,0.02646 -0.79375,0.100542 -7.204604,1.5875 -10.755312,1.637771 -5.516563,0.07937 -7.141104,0.02117 c -1.193271,-0.04233 -2.3495,-0.187854 -3.532188,-0.211666 -4.103687,-0.08731 -8.043333,-0.910167 -12.871979,-2.307167 Q 8.6068974,95.133584 4.5958141,94.107001 3.2199808,93.752459 1.0662725,92.593584 C -0.29104,91.86598 -1.2964567,91.347396 -1.3334983,89.894834 q -0.026458,-1.074208 0.206375,-2.447396 C -0.656165,84.69048 -0.10583167,81.949397 0.78581415,79.152751 Q 4.0348974,68.955709 11.308293,60.391147 c 6.662208,-7.844896 14.716125,-14.716125 24.206729,-18.713979 0.711729,-0.301625 1.280583,-0.814917 1.791229,-1.494896 q 0.957792,-1.275292 2.365375,-3.294062 2.746375,-3.939646 7.590896,-8.016875 c 5.36575,-4.519084 11.14425,-7.307792 17.851437,-9.271 q 4.767792,-1.394354 8.233833,-1.860021 c 3.02948,-0.407458 6.416146,-0.359833 9.464146,-0.248708 5.704417,0.209021 11.284479,1.5875 16.756062,3.593041 q 6.47435,2.373313 11.67606,6.850063 1.80975,1.558396 4.32594,4.019021 2.64583,2.587624 4.01373,4.307416 c 4.25715,5.352521 7.44802,12.766146 7.99306,19.581812 0.15875,1.989667 0.47361,3.645959 0.48419,5.601229 q 0.0106,2.084917 -0.045,2.931584 c -0.37571,5.603875 -1.4949,10.564812 -2.73315,16.71902 q -0.86518,4.307417 -1.22237,8.79475 -0.26723,3.344334 1.67746,6.154209 c 1.64571,2.378604 3.25702,3.759729 5.88433,5.453059 q 7.92692,5.10911 10.7659,6.82361 c 4.17512,2.52148 8.11477,5.43189 11.02254,7.95337 q 11.8401,10.27113 20.9841,23.92363 c 2.20134,3.28612 5.53773,9.04081 8.01423,12.73439 q 3.74121,5.588 7.82902,10.64419 c 4.3524,5.38692 9.60702,10.35844 14.86165,14.58119 2.03464,1.63512 4.22804,3.15912 6.18596,4.26243 q 3.32581,1.87061 4.37885,2.62732 0.79904,0.57414 1.06362,1.19591 c 0.52653,1.23296 -1.13241,2.77548 -2.15106,3.3364 q -6.1595,3.37873 -11.97769,5.80231 a 0.079375,0.079375 0 0 0 -0.0265,0.127 q 0.34925,0.36513 0.79375,0.70909 6.2865,4.87097 11.93535,9.89541 1.53194,1.36261 2.87602,3.01096 c 1.45521,1.78329 0.21961,3.66183 -1.4896,4.5376 q -2.26748,1.16417 -5.22817,1.38377 c -3.59569,0.26988 -7.0485,-0.0926 -10.63625,-0.47095 q -9.19162,-0.96573 -17.45721,-4.73869 a 0.68527082,0.69056249 41.7 0 0 -0.64293,0.0397 q -2.22515,1.36789 -4.67519,2.36802 -9.56469,3.90525 -19.89667,5.23081 -5.70971,0.7329 -8.67569,0.96308 -4.62491,0.35984 -5.50862,0.46832 c -0.45508,0.0556 -0.91811,0.38629 -1.22238,0.7567 -1.34673,1.64571 -2.58762,3.07711 -4.44764,4.11692 a 0.45772916,0.45772916 0 0 0 -0.23019,0.36777 l -0.33602,5.59065 a 0.15875,0.16139583 2.8 0 0 0.15081,0.16933 q 6.11452,0.29633 11.20775,-0.70908 c 3.41842,-0.67469 7.22313,-1.8124 10.33463,-2.42359 3.98198,-0.78316 8.10154,-1.24089 12.23168,-0.97102 q 5.842,0.38365 10.57275,1.27794 c 3.38667,0.64029 6.74688,1.43404 9.57792,1.8415 5.83671,0.83873 11.04371,0.91281 16.6026,-0.22225 q 8.01688,-1.63777 9.84515,-1.97379 6.35265,-1.16417 12.19465,-0.80963 4.10104,0.24607 7.90839,1.72773 0.84931,0.33073 1.47373,0.71438 a 0.66145832,0.83872916 22.8 0 1 0.24871,0.90223 c -0.39952,1.25677 -1.56898,0.99748 -2.67758,0.68791 q -4.24127,-1.19062 -7.8105,-1.33614 -5.05619,-0.20902 -10.23673,0.73554 c -4.97946,0.90752 -10.53836,2.36273 -16.08932,2.8866 q -1.86266,0.17727 -6.73893,0.0185 -2.82046,-0.0926 -7.14375,-0.96308 c -6.49552,-1.30439 -11.06488,-2.23308 -16.67404,-2.62731 q -6.76805,-0.4789 -13.06248,0.96837 -2.04259,0.47096 -6.78392,1.67746 -1.97644,0.50536 -5.75469,1.11919 c -3.28612,0.53446 -6.56431,0.46037 -9.525,0.39952 a 0.1508125,0.1508125 0 0 0 -0.15346,0.14023 c -0.20902,3.60098 0.0609,6.02721 0.36248,9.89806 0.24871,3.16706 -0.17462,6.86594 -1.66687,9.73402 q -1.20386,2.31511 -2.25954,3.73063 -0.98161,1.32027 -3.00302,3.15912 c -2.90777,2.64054 -5.75734,5.04032 -8.87413,6.88446 q -1.22502,0.72761 -2.94216,1.03717 -1.41553,0.25664 -2.13519,-0.94986 -1.38377,-2.32304 -2.00025,-5.13027 a 0.15875,0.16139583 77.1 0 0 -0.19579,-0.12171 q -4.34711,1.13771 -9.12284,2.65907 -1.19591,0.381 -2.62466,0.49741 c -1.44198,0.11642 -2.33892,-0.51064 -3.373441,-1.41552 -1.468438,-1.28323 -0.150813,-4.60639 0.669391,-6.06954 a 0.04233333,0.04233333 0 0 0 -0.0397,-0.0635 q -3.267607,0.0952 -4.754565,0.254 c -1.465792,0.15611 -5.416021,0.0794 -6.135688,-1.64571 -0.73025,-1.74625 0.261938,-3.02418 1.494896,-4.32858 q 2.114021,-2.23044 5.074708,-3.91583 3.58775,-2.04259 5.392209,-2.74902 7.08554,-2.77284 12.82965,-3.89467 5.05089,-0.9869 8.96672,-1.9394 0.57944,-0.14287 0.6059,-0.45243 c 0.0926,-1.04775 0.11642,-2.1008 0.13758,-3.58511 0.0106,-0.89164 0.13494,-1.47373 0.28575,-2.4765 a 0.1190625,0.12170833 6.3 0 0 -0.11112,-0.14023 c -2.28071,-0.13229 -4.73869,0.0291 -6.84742,-0.0238 q -2.23308,-0.0582 -4.13544,0.09 -0.15081,0.0106 -5.67266,0.28839 -0.76994,0.0397 -1.71979,-0.0212 -3.78884,-0.24342 -7.424212,-0.81492 a 0.22754166,0.22754166 0 0 0 -0.261938,0.20638 q -0.341312,4.33916 -0.423333,8.83443 -0.01588,0.93663 -0.381,2.50296 c -0.605896,2.57969 -3.000375,4.41325 -5.222875,5.61446 -2.344208,1.26735 -3.135312,1.69598 -5.431896,3.05858 q -3.92377,2.32304 -6.770687,3.39196 -4.048125,1.51871 -7.540625,2.51354 -1.754187,0.49742 -2.905125,-0.73289 c -0.875771,-0.93927 -1.476375,-2.35215 -2.116667,-3.70946 a 0.47624999,0.47624999 0 0 0 -0.455083,-0.27517 c -2.251604,0.10319 -4.971521,0.58209 -6.836833,0.87048 -0.452438,0.0714 -1.468438,0.082 -2.018771,-0.0741 -2.629958,-0.73819 -2.579687,-3.14325 -1.452562,-5.30225 a 0.10847917,0.10847917 0 0 0 -0.10848,-0.15875 q -2.489729,0.24341 -4.519083,0.14816 c -2.034646,-0.0952 -3.958166,0.45244 -5.815541,-0.66939 -1.2065,-0.72761 -1.18798,-2.47915 -0.545042,-3.51896 q 0.714375,-1.15358 1.497542,-1.8124 c 3.571875,-3.00566 8.416395,-4.81012 13.120687,-5.51391 q 7.014104,-1.05304 14.030854,-2.71463 0.709083,-0.16933 5.090583,-0.81491 c 1.793875,-0.26459 3.534833,-0.21696 5.222875,-0.2593 a 0.3889375,0.38629166 6.6 0 0 0.365125,-0.28839 z M 47.392168,55.660397 q 0.449791,-1.603375 0.79375,-2.783417 1.087437,-3.71475 3.431646,-7.077604 C 55.737126,39.896522 61.920438,35.282189 68.94248,33.445981 q 5.458354,-1.42875 10.630958,-1.026584 3.336396,0.259292 5.005917,0.621771 3.100916,0.669396 6.908271,2.211917 2.365374,0.960437 6.426729,3.341687 0.682625,0.402167 7.442725,4.214813 4.68048,2.640541 8.78682,4.161895 c 2.42358,0.899584 4.21216,1.280584 6.81566,1.703917 a 0.42068749,0.42068749 0 0 0 0.48154,-0.484188 q -0.17727,-1.058333 -0.75406,-2.317749 C 117.77398,39.497001 113.42952,34.051876 107.72775,30.03021 103.4706,27.029835 99.253146,24.796751 94.440375,23.516168 q -6.376458,-1.695979 -13.215937,-2.06375 -2.521479,-0.134937 -7.159625,0.275167 -10.006541,0.881062 -18.261541,5.767916 -6.969125,4.1275 -12.422188,10.331979 -1.389062,1.579563 -2.611437,3.452813 a 0.111125,0.11377083 28.4 0 0 0.04763,0.164042 c 5.392208,2.43152 6.196542,9.032874 6.421437,14.197541 a 0.079375,0.07672917 51.7 0 0 0.153459,0.01852 z m 74.797712,-4.579938 q -1.18534,0.100542 -2.27278,-0.08202 -5.09587,-0.851959 -9.75254,-2.947459 c -5.00062,-2.251604 -9.56204,-4.79425 -14.414497,-7.530041 Q 92.604167,38.74823 91.170126,38.137043 C 84.198355,35.168418 77.054605,34.292647 69.701834,36.22146 63.73548,37.782501 58.507313,41.41523 54.610001,46.357647 q -1.730375,2.193396 -2.727854,4.270375 c -0.902229,1.881187 -1.648354,4.156604 -2.370667,6.392333 -0.732896,2.270125 -1.172104,5.005917 -0.992187,7.297208 q 0.251354,3.222625 0.679979,6.011334 0.328083,2.129896 1.426104,5.863166 0.889,3.032125 1.754188,6.167438 0.235479,0.849312 0.912812,1.558396 2.024062,2.116666 4.572,3.894666 2.791354,1.949979 5.098521,3.071813 c 5.974291,2.913062 12.832291,3.82852 19.383374,2.513541 4.910667,-0.98425 9.763125,-2.312458 14.239875,-4.585229 3.886734,-1.971146 7.286624,-4.061354 10.559524,-6.805083 3.47927,-2.921 6.5696,-5.942542 9.06462,-9.614958 q 0.80169,-1.185334 2.69875,-4.484688 2.02936,-3.537479 2.45798,-4.622271 c 1.65894,-4.217458 2.22779,-7.879291 1.016,-12.072937 a 0.18520833,0.18785416 79.8 0 0 -0.19314,-0.132292 z M 28.688772,80.999542 c 3.775604,-0.801687 7.347479,-1.558395 11.332104,-2.921 q 4.407958,-1.508125 6.246813,-2.19075 a 0.1666875,0.16404166 74.8 0 0 0.105833,-0.187854 Q 45.537439,71.339605 45.010918,67.38673 C 44.62198,64.486897 44.606105,61.497105 44.341522,58.425293 q -0.256646,-2.992438 -1.214438,-7.291917 c -0.619125,-2.775479 -1.902354,-7.678208 -5.926666,-6.148916 -1.415521,0.537104 -3.182938,1.259416 -3.775604,2.587624 q -2.203979,4.923896 -3.381375,10.242021 -0.727604,3.286125 -1.402292,8.183563 c -0.346604,2.510895 -0.343958,4.561416 -0.481542,7.752291 q -0.150812,3.473979 0.375709,7.141104 a 0.127,0.127 0 0 0 0.153458,0.108479 z m 0.669396,-31.413978 q -0.161396,0.0635 -0.309563,0.166687 -1.772708,1.227667 -6.260041,4.860396 -6.498167,5.259917 -11.694583,12.737041 C 7.1993141,72.956209 4.7677933,79.015167 3.5824599,85.595355 q -0.3201458,1.778 -0.5900208,3.106208 a 0.1190625,0.1190625 0 0 0 0.1508125,0.137583 c 4.6751875,-1.373187 9.1942704,-3.085041 14.3060204,-4.870979 2.354792,-0.8255 4.929188,-1.455208 7.424209,-2.01877 a 0.3571875,0.35983333 82.5 0 0 0.280458,-0.36248 c -0.174625,-4.397375 -0.304271,-8.421687 0.06085,-12.861395 q 0.343958,-4.193646 1.672167,-9.424458 1.344083,-5.30225 2.513541,-9.675813 a 0.03175,0.03175 0 0 0 -0.04233,-0.03969 z M 138.46969,110.47677 q -0.24871,-0.28839 -0.43657,-0.40481 -2.56116,-1.58221 -6.6966,-3.94494 c -3.27819,-1.87325 -6.73364,-4.48204 -8.68627,-7.479769 q -0.94192,-1.444625 -1.7436,-3.518959 c -1.10332,-2.854854 -1.10067,-6.275916 -0.65882,-9.2075 q 0.57944,-3.849687 1.6854,-9.181041 c 0.97367,-4.701646 1.54781,-8.175625 2.04523,-12.300479 a 0.03175,0.03175 0 0 0 -0.0609,-0.01588 q -1.07156,2.502958 -2.62995,5.140854 c -2.16959,3.664479 -3.83117,6.289146 -6.38969,9.038166 -1.60867,1.72773 -3.70152,3.862917 -5.47423,5.291667 -3.60892,2.905125 -7.88458,5.842 -12.0015,7.781396 -4.876271,2.293937 -10.107084,3.831166 -15.404042,4.675187 -7.553854,1.201209 -14.959541,0.02117 -21.634979,-3.709458 q -4.135437,-2.312458 -7.358062,-5.6515 a 0.0635,0.06614583 22.1 0 0 -0.111125,0.04762 c 0.01058,0.931333 0.0635,1.830917 -0.08202,2.836333 q -0.854604,5.921375 -3.974042,11.183933 -0.679979,1.14565 -3.47927,5.73088 a 0.11641667,0.11641667 0 0 0 0.07673,0.17462 c 3.010958,0.6403 5.453062,1.1774 8.292041,2.34157 q 4.011084,1.64571 7.022042,3.10356 1.928812,0.93133 3.069167,1.69598 8.932333,5.99546 15.287624,14.986 1.317625,1.86002 3.272896,5.05089 5.582708,9.10167 6.5405,10.68388 0.07673,0.12964 0.142875,0.18256 a 0.06085417,0.06085417 0 0 0 0.0979,-0.0582 c -0.891646,-4.9186 -1.158875,-10.40077 -0.171979,-15.50987 Q 91.220396,117.983 100.5549,111.26523 c 6.57489,-4.73075 15.54162,-5.62504 23.28598,-4.44235 q 7.18343,1.09802 14.57589,3.73062 a 0.047625,0.047625 0 0 0 0.0529,-0.0767 z M 47.188439,78.97548 Q 39.04721,81.962626 30.88746,83.759147 a 0.14022916,0.14022916 0 0 0 -0.08731,0.211666 q 0.846667,1.352021 1.717146,2.246313 2.852208,2.928937 7.212541,6.328833 1.471084,1.145646 3.391959,0.870479 2.497666,-0.354542 4.606396,-0.732896 a 0.333375,0.333375 0 0 0 0.267229,-0.269875 q 0.132291,-0.804333 0.343958,-1.516062 c 0.346604,-1.153584 0.447146,-2.029354 0.41275,-3.058584 Q 48.606605,83.481334 47.299564,79.033688 A 0.08466667,0.08466667 0 0 0 47.188439,78.97548 Z M 36.681835,94.085834 Q 34.46198,92.567126 32.23948,90.37373 c -1.984375,-1.963209 -3.558645,-3.452813 -4.960937,-5.582708 a 0.20108333,0.206375 67.4 0 0 -0.216958,-0.08731 q -3.426354,0.746125 -6.355292,1.621896 -6.627812,1.984375 -13.3191248,4.368271 a 0.111125,0.111125 0 0 0 0.00529,0.20902 c 3.4739788,1.050396 7.3712908,2.264834 11.1733538,2.733146 3.463396,0.428625 6.442604,0.5715 9.678458,0.751417 q 4.389438,0.246062 8.408458,-0.187854 a 0.0635,0.0635 0 0 0 0.02911,-0.113771 z M 113.90048,213.40233 c -1.06892,-1.70127 -2.08227,-3.43429 -3.04535,-5.72029 q -0.56621,-1.34144 -1.63248,-3.21998 c -0.46038,-0.81491 -0.29105,-1.86266 0.81491,-1.91823 a 0.59531249,0.56885416 55.4 0 1 0.26988,0.0556 q 1.01864,0.47889 1.74096,1.53458 0.35189,0.51594 2.58498,4.1566 c 2.03464,3.32317 4.71487,6.39763 7.24958,9.15194 1.91029,2.07433 4.42648,3.87615 7.27869,4.2254 q 1.87854,0.23018 4.16718,-0.12171 c 3.59834,-0.55563 6.69661,-3.25438 8.32644,-6.27327 q 2.10873,-3.90261 3.26231,-6.00075 c 0.44715,-0.80963 0.79375,-1.8415 1.12977,-2.49767 0.41275,-0.80963 1.1774,-0.74083 1.59544,-0.0582 0.55033,0.89958 0.15875,2.30188 -0.22489,3.27819 q -0.83609,2.15106 -1.97644,4.68842 a 0.079375,0.079375 0 0 0 0.082,0.11112 q 8.90058,-0.77787 17.98902,-2.2225 c 5.56948,-0.88635 10.28171,-2.50031 16.00729,-4.3524 q 1.54781,-0.50006 2.8575,-1.24618 c 0.60854,-0.34925 1.37054,-0.57679 1.85738,-0.34396 q 2.24366,1.08479 3.1406,1.23031 2.84427,0.46567 5.75469,1.24619 c 5.63298,1.51606 10.59656,1.97114 16.02846,2.13519 q 2.61672,0.0767 5.18318,-0.50271 a 0.142875,0.14022916 60.1 0 0 0.0635,-0.24077 q -2.60614,-2.4765 -5.36046,-4.93977 -2.26218,-2.02142 -10.33991,-8.382 -0.81227,-0.64029 -1.86002,-0.34132 c -1.77006,0.508 -3.38402,1.11919 -5.20965,1.54782 -5.40808,1.26735 -10.69181,1.85737 -16.15546,1.4261 -6.76539,-0.53446 -14.20283,-1.25942 -20.45758,-2.66964 -2.43152,-0.54769 -7.0485,-1.56634 -10.52248,-2.60086 -14.49387,-4.31535 -27.73098,-11.12308 -39.1451,-21.0476 -5.94519,-5.17261 -10.720919,-11.41148 -13.623398,-18.73515 -0.756708,-1.90764 -1.404937,-3.32581 -2.188104,-4.64344 -1.251479,-2.10343 -3.100917,-4.74398 -4.280958,-7.04056 q -0.341313,-0.66146 -5.691188,-9.54087 -1.156229,-1.91823 -2.039937,-3.01361 c -5.3975,-6.67543 -11.176,-12.27137 -19.132021,-16.12106 q -3.434291,-1.66158 -4.143375,-1.95527 -4.577291,-1.89442 -10.239375,-3.15648 a 0.13758333,0.1349375 22.6 0 0 -0.140229,0.0556 c -3.96875,5.97165 -6.744229,12.94077 -8.683625,19.90461 q -0.71702,2.57704 -1.42875,6.91621 c -0.206375,1.25677 -0.161395,2.5056 -0.293687,3.82587 q -0.164042,1.66423 -0.177271,2.87337 -0.08202,6.4823 1.23825,12.4513 1.185333,5.36045 3.836458,11.15748 c 2.084917,4.56406 5.249334,9.28158 8.202084,12.85081 2.817812,3.40519 5.759979,6.78656 9.175749,9.65994 q 3.455459,2.90512 6.868584,5.38162 4.905375,3.556 10.141479,6.0034 6.416145,3.00037 12.221104,5.64091 2.447396,1.11125 4.677833,1.80446 2.632604,0.81492 4.781021,1.53723 2.457979,0.82815 7.294566,1.86796 8.73654,1.88119 9.0805,1.94998 1.63512,0.33337 3.00831,0.381 a 0.09260417,0.09260417 0 0 0 0.082,-0.14288 z m 68.06935,-17.86731 q -0.0132,-0.005 -1.74625,-0.31221 -0.7276,-0.12964 -1.73566,-0.39423 -5.58536,-1.46314 -11.34534,-3.86291 c -3.89202,-1.61925 -7.239,-3.77296 -10.82146,-6.21242 -0.77522,-0.52652 -3.0136,-2.09285 -3.13531,-3.04271 -0.15346,-1.20914 0.99219,-1.11919 1.63777,-0.71702 2.01877,1.25413 4.57994,2.48973 6.77334,3.75708 q 3.22262,1.86532 4.5085,2.56646 4.47145,2.43417 10.34256,4.00844 4.41854,1.18533 6.38969,1.56369 c 1.50018,0.29104 3.59304,0.4445 4.75191,0.57679 3.54277,0.40481 7.33161,0.18785 10.64419,-0.53181 q 2.08492,-0.45244 3.38137,-1.10861 2.50825,-1.27264 4.72017,-2.0955 a 0.05027083,0.05027083 0 0 0 -0.0106,-0.0979 q -11.76073,-1.4023 -22.30702,-6.6093 -5.55361,-2.74108 -5.75734,-2.84427 -4.43706,-2.23308 -8.12535,-5.48745 c -0.67733,-0.59532 -1.53194,-1.33615 -1.32821,-2.2225 a 0.53974999,0.50535416 11.2 0 1 0.6059,-0.37836 c 0.97896,0.1614 1.71185,0.79111 2.83369,1.58221 q 0.70908,0.49742 1.63777,1.03981 c 2.54,1.48696 5.54037,3.43429 8.12535,4.70694 3.60627,1.77271 7.7179,3.36021 11.28183,4.5376 q 2.58498,0.85196 5.47159,1.32557 6.78391,1.11125 10.54364,1.4605 1.09538,0.10318 1.80181,0.0529 a 0.12964583,0.13229166 61.2 0 0 0.0688,-0.23548 c -1.73038,-1.30968 -3.82323,-2.3786 -5.70442,-3.39989 q -1.52665,-0.82815 -2.19869,-1.31234 c -3.10621,-2.22779 -5.98752,-4.79689 -8.93233,-7.7126 -4.4159,-4.37356 -8.09096,-9.2366 -11.89567,-14.36158 q -2.0611,-2.78077 -5.22552,-7.88723 -1.66952,-2.69346 -6.6675,-10.36902 -4.064,-6.24152 -8.97466,-11.46175 -2.94482,-3.13002 -6.01134,-6.15686 c -5.77321,-5.70177 -13.26356,-9.66523 -20.83329,-11.80041 q -4.85246,-1.3679 -11.76337,-2.45269 -6.9215,-1.08744 -13.94619,0.89429 -7.65175,2.159 -12.136439,8.17827 c -4.206875,5.64356 -5.93725,12.31636 -5.572125,19.26167 q 0.193146,3.73856 0.6985,6.55108 1.833563,10.26848 8.313204,18.41236 c 5.207,6.54579 12.12586,11.73162 19.2749,16.17397 q 9.39006,5.83936 19.97869,9.8425 7.55385,2.85486 14.84577,4.27303 8.00894,1.56104 17.49954,2.6035 c 2.97392,0.32543 5.85523,0.28045 8.47196,0.0503 q 1.02658,-0.09 1.56898,-0.24077 a 0.05820833,0.05820833 0 0 0 0.003,-0.11113 z m -94.895454,15.9041 q 0.963083,3.38138 2.614083,6.72836 c 0.375708,0.75406 0.746125,1.16416 1.431396,1.46579 q 2.039937,0.89429 4.482041,0.76994 1.881188,-0.0952 3.103563,-1.79123 0.896937,-1.24619 2.275421,-3.32052 a 0.1031875,0.1031875 0 0 0 -0.0609,-0.15611 q -4.57729,-1.06362 -9.577915,-2.65112 c -1.336146,-0.42598 -2.751667,-0.71967 -4.167188,-1.143 a 0.079375,0.079375 0 0 0 -0.100541,0.0979 z m 37.401504,17.43605 0.65881,-4.23069 a 0.18520833,0.1825625 15.8 0 0 -0.11113,-0.19579 q -2.13518,-0.889 -3.9026,-2.5453 -2.09286,-1.96585 -3.38402,-3.29935 a 1.4896041,1.4869583 69.9 0 0 -0.96573,-0.44979 q -2.54,-0.18256 -5.03502,-0.62706 c -3.77031,-0.67734 -5.56154,-1.08744 -7.31838,-1.17475 a 0.52122916,0.51858333 12.6 0 0 -0.50271,0.3175 c -0.93397,2.2225 -2.30716,3.75443 -4.0931,5.78908 a 1.9579166,1.9499791 71.2 0 0 -0.452437,0.9234 l -1.016,5.22816 a 0.21166666,0.21166666 0 0 0 0.193146,0.25136 q 2.201331,0.16404 3.315231,0.29633 c 2.67494,0.32279 5.41073,0.33337 7.64116,0.14817 q 2.48973,-0.20902 4.31271,-0.1958 3.38402,0.0265 10.47221,-0.0714 a 0.19314583,0.19579166 4.3 0 0 0.18786,-0.16404 z m -75.252796,16.09195 q 1.735667,0.0106 5.066771,-0.17727 c 2.039938,-0.11377 4.042833,-0.24606 5.490104,0.30163 a 2.0584583,2.0716875 48.4 0 0 1.225021,0.0688 q 2.717271,-0.68792 4.966229,-1.13506 1.894417,-0.37571 3.640667,-1.10596 0.296333,-0.12436 0.439208,0.0185 a 0.3571875,0.34660416 52.1 0 1 -0.06085,0.55298 q -0.989542,0.58473 -2.180167,1.06098 -3.466041,1.38377 -6.731,2.65377 a 0.43656249,0.44714583 87.2 0 0 -0.264583,0.28575 q -0.452437,1.48431 -1.426104,2.96862 a 0.0635,0.0635 0 0 0 0.06615,0.0979 q 3.84175,-0.80698 7.551208,-0.98425 c 0.677333,-0.0317 1.264708,-0.33338 1.912937,-0.1905 1.36525,0.30162 3.529542,-0.4789 4.587875,-0.99483 q 3.429,-1.66688 5.924021,-2.82311 a 0.56356249,0.56620833 54.4 0 1 0.627063,0.10319 l 0.02117,0.0159 a 0.29633333,0.29633333 0 0 1 -0.05556,0.48419 l -9.776354,5.24934 a 0.1984375,0.1984375 0 0 0 -0.08202,0.26722 l 1.285875,2.39713 a 0.381,0.38364583 69.5 0 0 0.420687,0.1905 q 1.386417,-0.30956 3.024188,-0.90752 7.6835,-2.81252 14.525625,-7.10671 c 2.428875,-1.524 4.249208,-2.64583 4.452937,-5.82348 q 0.02381,-0.37306 0.100542,-4.55612 0.01058,-0.52917 0.505354,-3.82323 0.248708,-1.66952 0.788458,-3.77296 0.322792,-1.26471 0.936625,-3.99256 a 0.11641667,0.1190625 6.1 0 0 -0.116416,-0.14552 q -2.910417,0.0265 -5.670021,-0.84138 a 0.2143125,0.20902083 14.3 0 0 -0.272521,0.15875 c -0.579437,2.95275 -0.862542,5.72558 -1.815042,8.78946 q -0.402166,1.29117 -0.764645,2.95275 c -0.211667,0.96308 -1.624542,1.12977 -2.502959,1.20914 -2.005541,0.18257 -4.791604,0.0344 -6.775979,0.34132 q -1.439333,0.22225 -3.193521,0.60589 -3.611562,0.78582 -9.786937,2.06375 -1.965854,0.40482 -4.497917,0.82815 -3.825875,0.63764 -7.723187,2.20662 -2.206625,0.889 -3.913187,2.37067 a 0.07672917,0.079375 24.7 0 0 0.05027,0.13758 z m 44.047833,8.46932 c 1.653646,0.30956 3.807354,0.16933 5.466292,-0.0688 1.955271,-0.2831 4.225391,0.10319 5.886981,0.56357 a 0.74612499,0.74347916 38.9 0 0 0.55298,-0.0582 c 1.73566,-0.90488 3.45281,-1.71715 5.50068,-2.46063 q 1.65365,-0.60325 3.61157,-1.54252 a 0.30691666,0.3095625 63.3 0 1 0.40481,0.13229 l 0.0423,0.0794 a 0.40481249,0.40481249 0 0 1 -0.12435,0.52387 c -1.80181,1.25942 -3.72269,1.98438 -5.67531,3.13267 q -2.80459,1.651 -3.69888,2.18281 c -1.65629,0.98425 -2.07169,2.81782 -2.52942,4.86305 a 0.111125,0.111125 0 0 0 0.12436,0.13493 q 0.69056,-0.0979 1.18533,-0.26458 3.43959,-1.15358 6.97971,-1.94204 0.84931,-0.18786 4.75721,-1.4314 0.1561,-0.0503 0.75142,0.15346 a 0.48154166,0.47360416 40.5 0 0 0.36777,-0.0265 c 1.43668,-0.73554 2.87866,-1.73566 4.0296,-2.62731 q 2.81781,-2.17488 4.39738,-3.25173 a 0.381,0.38364583 51.1 0 1 0.48947,0.0503 l 0.0106,0.008 a 0.32279166,0.32279166 0 0 1 -0.0212,0.46831 q -0.889,0.75936 -1.58221,1.58221 c -1.778,2.10873 -3.97404,3.84704 -6.35,5.16202 a 0.27252083,0.26722916 64.9 0 0 -0.11906,0.33602 q 0.7964,1.96056 1.35467,4.45823 a 0.26458333,0.26458333 0 0 0 0.37571,0.17727 c 2.81516,-1.41552 4.86833,-3.29406 7.66497,-5.81025 q 2.67494,-2.41035 3.69623,-3.7121 1.57692,-2.00819 2.05317,-2.92894 1.41817,-2.7305 1.3044,-6.3156 c -0.11378,-3.50309 -0.41805,-6.21507 -0.24078,-9.30275 0.23813,-4.14867 0.40217,-7.1464 1.03453,-10.4775 a 0.127,0.127 0 0 0 -0.14817,-0.14817 q -3.43429,0.65087 -6.80244,0.0979 a 0.08995833,0.0873125 8.1 0 0 -0.10319,0.0767 q -0.3466,3.00832 -0.73289,7.26282 c -0.21167,2.3495 -0.15346,5.06412 -0.47625,7.31308 q -0.11377,0.78052 -0.61648,1.03187 c -1.62719,0.80698 -3.22792,1.51871 -5.10381,1.905 -2.23044,0.46303 -5.03767,1.2065 -7.65969,1.69863 q -2.21456,0.41275 -3.45546,0.81492 c -5.9346,1.92087 -12.202582,3.7412 -16.650228,8.001 a 0.09260417,0.09260417 0 0 0 0.04762,0.15875 z"
       id="path18"
       style="stroke-width:0.264583" /><path
       fill="#ffffff"
       d="m 47.392168,55.660397 a 0.079375,0.07672917 51.7 0 1 -0.153459,-0.01852 C 47.013814,50.477209 46.20948,43.875855 40.817272,41.444335 a 0.111125,0.11377083 28.4 0 1 -0.04763,-0.164042 q 1.222375,-1.87325 2.611437,-3.452813 5.453063,-6.204479 12.422188,-10.331979 8.255,-4.886854 18.261541,-5.767916 4.638146,-0.410104 7.159625,-0.275167 6.839479,0.367771 13.215937,2.06375 c 4.812771,1.280583 9.03023,3.513667 13.28738,6.514042 5.70176,4.021666 10.04622,9.466791 12.95928,15.84325 q 0.57679,1.259416 0.75406,2.317749 a 0.42068749,0.42068749 0 0 1 -0.48154,0.484188 c -2.6035,-0.423333 -4.39207,-0.804333 -6.81565,-1.703917 q -4.10635,-1.521354 -8.78683,-4.161895 -6.760095,-3.812646 -7.44272,-4.214813 -4.06135,-2.38125 -6.426724,-3.341687 -3.807355,-1.542521 -6.908271,-2.211917 -1.669521,-0.362479 -5.005917,-0.621771 -5.172604,-0.402166 -10.630958,1.026584 c -7.022042,1.836208 -13.205354,6.450541 -17.324916,12.353395 q -2.344209,3.362854 -3.431646,7.077604 -0.343959,1.180042 -0.79375,2.783417 z"
       id="path19"
       style="stroke-width:0.264583" /><path
       fill="#ffffff"
       d="m 122.18988,51.080459 a 0.18520833,0.18785416 79.8 0 1 0.19314,0.132292 c 1.21179,4.193646 0.64294,7.855479 -1.016,12.072937 q -0.42862,1.084792 -2.45798,4.622271 -1.89706,3.299354 -2.69875,4.484688 c -2.49502,3.672416 -5.58535,6.693958 -9.06462,9.614958 -3.2729,2.743729 -6.67279,4.833937 -10.559524,6.805083 -4.47675,2.272771 -9.329208,3.600979 -14.239875,4.585229 -6.551083,1.314979 -13.409083,0.399521 -19.383374,-2.513541 q -2.307167,-1.121834 -5.098521,-3.071813 -2.547938,-1.778 -4.572,-3.894666 -0.677333,-0.709084 -0.912812,-1.558396 -0.865188,-3.135313 -1.754188,-6.167438 -1.098021,-3.73327 -1.426104,-5.863166 -0.428625,-2.788709 -0.679979,-6.011334 c -0.179917,-2.291291 0.259291,-5.027083 0.992187,-7.297208 0.722313,-2.235729 1.468438,-4.511146 2.370667,-6.392333 q 0.997479,-2.076979 2.727854,-4.270375 c 3.897312,-4.942417 9.125479,-8.575146 15.091833,-10.136187 7.352771,-1.928813 14.496521,-1.053042 21.468292,1.915583 q 1.434041,0.611187 4.579937,2.383896 c 4.852457,2.735791 9.413877,5.278437 14.414497,7.530041 q 4.65667,2.0955 9.75254,2.947459 1.08744,0.182562 2.27278,0.08202 z M 75.867552,47.668896 A 10.956396,9.8372082 86.1 0 0 66.798323,59.268996 10.956396,9.8372082 86.1 0 0 77.35795,69.53094 10.956396,9.8372082 86.1 0 0 86.427178,57.930839 10.956396,9.8372082 86.1 0 0 75.867552,47.668896 Z"
       id="path20"
       style="stroke-width:0.264583" /><path
       fill="#ffffff"
       d="m 28.688772,80.999542 a 0.127,0.127 0 0 1 -0.153458,-0.108479 q -0.526521,-3.667125 -0.375709,-7.141104 c 0.137584,-3.190875 0.134938,-5.241396 0.481542,-7.752291 q 0.674688,-4.897438 1.402292,-8.183563 1.177396,-5.318125 3.381375,-10.242021 c 0.592666,-1.328208 2.360083,-2.05052 3.775604,-2.587624 4.024312,-1.529292 5.307541,3.373437 5.926666,6.148916 q 0.957792,4.299479 1.214438,7.291917 c 0.264583,3.071812 0.280458,6.061604 0.669396,8.961437 q 0.526521,3.952875 1.362604,8.313208 a 0.1666875,0.16404166 74.8 0 1 -0.105833,0.187854 q -1.838855,0.682625 -6.246813,2.19075 c -3.984625,1.362605 -7.5565,2.119313 -11.332104,2.921 z"
       id="path21"
       style="stroke-width:0.264583" /><path
       fill="#000000"
       d="M 75.867552,47.668896 A 10.956396,9.8372082 86.1 0 1 86.427178,57.930839 10.956396,9.8372082 86.1 0 1 77.35795,69.53094 10.956396,9.8372082 86.1 0 1 66.798323,59.268996 a 10.956396,9.8372082 86.1 0 1 9.069229,-11.6001 z m -0.63328,18.969063 q 5.013854,0.637646 7.326312,-3.690937 2.235729,-4.180417 0.07937,-8.485188 -1.452563,-2.897187 -4.706937,-3.886729 c -2.124605,-0.645583 -4.344459,0.537104 -5.958417,1.883834 a 0.1190625,0.1190625 0 0 0 0.0926,0.20902 q 2.100792,-0.27252 3.820583,0.637646 c 3.717396,1.9685 5.101167,6.651625 2.981854,10.305521 -0.854604,1.476375 -2.166937,2.201333 -3.656541,2.897187 a 0.06879167,0.06879167 0 0 0 0.02117,0.129646 z"
       id="path22"
       style="stroke-width:0.264583" /><path
       fill="#ffffff"
       d="m 29.358168,49.585564 a 0.03175,0.03175 0 0 1 0.04233,0.03969 q -1.169458,4.373563 -2.513541,9.675813 -1.328209,5.230812 -1.672167,9.424458 c -0.365125,4.439708 -0.235479,8.46402 -0.06085,12.861395 a 0.3571875,0.35983333 82.5 0 1 -0.280458,0.36248 c -2.495021,0.563562 -5.069417,1.19327 -7.424209,2.01877 -5.11175,1.785938 -9.6308329,3.497792 -14.3060204,4.870979 A 0.1190625,0.1190625 0 0 1 2.9924391,88.701563 q 0.269875,-1.328208 0.5900208,-3.106208 C 4.7677933,79.015167 7.1993141,72.956209 11.093981,67.349688 q 5.196416,-7.477124 11.694583,-12.737041 4.487333,-3.632729 6.260041,-4.860396 0.148167,-0.103187 0.309563,-0.166687 z"
       id="path23"
       style="stroke-width:0.264583" /><path
       fill="#ffffff"
       d="m 75.213105,66.508313 c 1.489604,-0.695854 2.801937,-1.420812 3.656541,-2.897187 2.119313,-3.653896 0.735542,-8.337021 -2.981854,-10.305521 q -1.719791,-0.910166 -3.820583,-0.637646 a 0.1190625,0.1190625 0 0 1 -0.0926,-0.20902 c 1.613958,-1.34673 3.833812,-2.529417 5.958417,-1.883834 q 3.254374,0.989542 4.706937,3.886729 2.156354,4.304771 -0.07937,8.485188 -2.312458,4.328583 -7.326312,3.690937 a 0.06879167,0.06879167 0 0 1 -0.02117,-0.129646 z"
       id="path24"
       style="stroke-width:0.264583" /><path
       fill="#ffffff"
       d="m 138.41677,110.5535 q -7.39246,-2.6326 -14.57589,-3.73062 c -7.74436,-1.18269 -16.71109,-0.2884 -23.28598,4.44235 q -9.334504,6.71777 -11.54642,18.17423 c -0.986896,5.1091 -0.719667,10.59127 0.171979,15.50987 a 0.06085417,0.06085417 0 0 1 -0.0979,0.0582 q -0.06615,-0.0529 -0.142875,-0.18256 -0.957792,-1.58221 -6.5405,-10.68388 -1.955271,-3.19087 -3.272896,-5.05089 -6.355291,-8.99054 -15.287624,-14.986 -1.140355,-0.76465 -3.069167,-1.69598 -3.010958,-1.45785 -7.022042,-3.10356 C 50.90848,108.1405 48.466376,107.6034 45.455418,106.9631 a 0.11641667,0.11641667 0 0 1 -0.07673,-0.17462 q 2.799291,-4.58523 3.47927,-5.73088 3.119438,-5.262558 3.974042,-11.183933 c 0.145521,-1.005416 0.0926,-1.905 0.08202,-2.836333 a 0.0635,0.06614583 22.1 0 1 0.111125,-0.04762 q 3.222625,3.339042 7.358062,5.6515 c 6.675438,3.730625 14.081125,4.910667 21.634979,3.709458 5.296958,-0.844021 10.527771,-2.38125 15.404042,-4.675187 4.116922,-1.939396 8.392582,-4.876271 12.001502,-7.781396 1.77271,-1.42875 3.86556,-3.563937 5.47423,-5.291667 2.55852,-2.74902 4.2201,-5.373687 6.38969,-9.038166 q 1.55839,-2.637896 2.62995,-5.140854 a 0.03175,0.03175 0 0 1 0.0609,0.01588 c -0.49742,4.124854 -1.07156,7.598833 -2.04523,12.300479 q -1.10596,5.331354 -1.6854,9.181041 c -0.44185,2.931584 -0.4445,6.352646 0.65882,9.2075 q 0.80168,2.074334 1.7436,3.518959 c 1.95263,2.997729 5.40808,5.606519 8.68627,7.479769 q 4.13544,2.36273 6.6966,3.94494 0.18786,0.11642 0.43657,0.40481 a 0.047625,0.047625 0 0 1 -0.0529,0.0767 z"
       id="path25"
       style="stroke-width:0.264583" /><path
       fill="#ffffff"
       d="m 47.188439,78.97548 a 0.08466667,0.08466667 0 0 1 0.111125,0.05821 q 1.307041,4.447646 1.452562,8.805333 c 0.0344,1.02923 -0.06615,1.905 -0.41275,3.058584 q -0.211667,0.711729 -0.343958,1.516062 a 0.333375,0.333375 0 0 1 -0.267229,0.269875 q -2.10873,0.378354 -4.606396,0.732896 -1.920875,0.275167 -3.391959,-0.870479 -4.360333,-3.399896 -7.212541,-6.328833 -0.870479,-0.894292 -1.717146,-2.246313 a 0.14022916,0.14022916 0 0 1 0.08731,-0.211666 q 8.15975,-1.796521 16.300979,-4.783667 z"
       id="path26"
       style="stroke-width:0.264583" /><path
       fill="#ffffff"
       d="m 36.681835,94.085834 a 0.0635,0.0635 0 0 1 -0.02911,0.113771 q -4.01902,0.433916 -8.408458,0.187854 C 25.008418,94.207542 22.02921,94.064667 18.565814,93.636042 14.763751,93.16773 10.866439,91.953292 7.3924599,90.902896 a 0.111125,0.111125 0 0 1 -0.00529,-0.20902 q 6.6913131,-2.383896 13.3191251,-4.368271 2.928938,-0.875771 6.355292,-1.621896 a 0.20108333,0.206375 67.4 0 1 0.216958,0.08731 c 1.402292,2.129895 2.976562,3.619499 4.960937,5.582708 q 2.2225,2.193396 4.442355,3.712104 z"
       id="path27"
       style="stroke-width:0.264583" /><path
       fill="#ffffff"
       d="m 113.90048,213.40233 a 0.09260417,0.09260417 0 0 1 -0.082,0.14288 q -1.37319,-0.0476 -3.00831,-0.381 -0.34396,-0.0688 -9.0805,-1.94998 -4.836587,-1.03981 -7.294566,-1.86796 -2.148417,-0.72231 -4.781021,-1.53723 -2.230437,-0.69321 -4.677833,-1.80446 -5.804959,-2.64054 -12.221104,-5.64091 -5.236104,-2.4474 -10.141479,-6.0034 -3.413125,-2.4765 -6.868584,-5.38162 c -3.41577,-2.87338 -6.357937,-6.25475 -9.175749,-9.65994 -2.95275,-3.56923 -6.117167,-8.28675 -8.202084,-12.85081 q -2.651125,-5.79703 -3.836458,-11.15748 -1.320271,-5.969 -1.23825,-12.4513 0.01323,-1.20914 0.177271,-2.87337 c 0.132292,-1.32027 0.08731,-2.5691 0.293687,-3.82587 q 0.71173,-4.33917 1.42875,-6.91621 c 1.939396,-6.96384 4.714875,-13.93296 8.683625,-19.90461 a 0.13758333,0.1349375 22.6 0 1 0.140229,-0.0556 q 5.662084,1.26206 10.239375,3.15648 0.709084,0.29369 4.143375,1.95527 c 7.956021,3.84969 13.734521,9.44563 19.132021,16.12106 q 0.883708,1.09538 2.039937,3.01361 5.349875,8.87941 5.691188,9.54087 c 1.180041,2.29658 3.029479,4.93713 4.280958,7.04056 0.783167,1.31763 1.431396,2.7358 2.188104,4.64344 2.902479,7.32367 7.678208,13.56254 13.623398,18.73515 11.41412,9.92452 24.65123,16.73225 39.1451,21.0476 3.47398,1.03452 8.09096,2.05317 10.52248,2.60086 6.25475,1.41022 13.69219,2.13518 20.45758,2.66964 5.46365,0.43127 10.74738,-0.15875 16.15546,-1.4261 1.82563,-0.42863 3.43959,-1.03982 5.20965,-1.54782 q 1.04775,-0.29897 1.86002,0.34132 8.07773,6.36058 10.33991,8.382 2.75432,2.46327 5.36046,4.93977 a 0.142875,0.14022916 60.1 0 1 -0.0635,0.24077 q -2.56646,0.57944 -5.18318,0.50271 c -5.4319,-0.16405 -10.39548,-0.61913 -16.02846,-2.13519 q -2.91042,-0.78052 -5.75469,-1.24619 -0.89694,-0.14552 -3.1406,-1.23031 c -0.48684,-0.23283 -1.24884,-0.005 -1.85738,0.34396 q -1.30969,0.74612 -2.8575,1.24618 c -5.72558,1.85209 -10.43781,3.46605 -16.00729,4.3524 q -9.08844,1.44463 -17.98902,2.2225 a 0.079375,0.079375 0 0 1 -0.082,-0.11112 q 1.14035,-2.53736 1.97644,-4.68842 c 0.38364,-0.97631 0.77522,-2.37861 0.22489,-3.27819 -0.41804,-0.68262 -1.18269,-0.75142 -1.59544,0.0582 -0.33602,0.65617 -0.68262,1.68804 -1.12977,2.49767 q -1.15358,2.09814 -3.26231,6.00075 c -1.62983,3.01889 -4.7281,5.71764 -8.32644,6.27327 q -2.28864,0.35189 -4.16718,0.12171 c -2.85221,-0.34925 -5.3684,-2.15107 -7.27869,-4.2254 -2.53471,-2.75431 -5.21494,-5.82877 -7.24958,-9.15194 q -2.23309,-3.64066 -2.58498,-4.1566 -0.72232,-1.05569 -1.74096,-1.53458 a 0.59531249,0.56885416 55.4 0 0 -0.26988,-0.0556 c -1.10596,0.0556 -1.27529,1.10332 -0.81491,1.91823 q 1.06627,1.87854 1.63248,3.21998 c 0.96308,2.286 1.97643,4.01902 3.04535,5.72029 z"
       id="path28"
       style="stroke-width:0.264583" /><path
       fill="#ffffff"
       d="m 181.96719,195.64615 q -0.5424,0.15081 -1.56898,0.24077 c -2.61673,0.23018 -5.49804,0.27516 -8.47196,-0.0503 q -9.4906,-1.04246 -17.49954,-2.6035 -7.29192,-1.41817 -14.84577,-4.27303 -10.58863,-4.00314 -19.97869,-9.8425 c -7.14904,-4.44235 -14.0679,-9.62818 -19.2749,-16.17397 q -6.479641,-8.14388 -8.313204,-18.41236 -0.505354,-2.81252 -0.6985,-6.55108 c -0.365125,-6.94531 1.36525,-13.61811 5.572125,-19.26167 q 4.484689,-6.01927 12.136439,-8.17827 7.02469,-1.98173 13.94619,-0.89429 6.91091,1.08479 11.76337,2.45269 c 7.56973,2.13518 15.06008,6.09864 20.83329,11.80041 q 3.06652,3.02684 6.01134,6.15686 4.91066,5.22023 8.97466,11.46175 4.99798,7.67556 6.6675,10.36902 3.16442,5.10646 5.22552,7.88723 c 3.80471,5.12498 7.47977,9.98802 11.89567,14.36158 2.94481,2.91571 5.82612,5.48481 8.93233,7.7126 q 0.67204,0.48419 2.19869,1.31234 c 1.88119,1.02129 3.97404,2.09021 5.70442,3.39989 a 0.12964583,0.13229166 61.2 0 1 -0.0688,0.23548 q -0.70643,0.0503 -1.80181,-0.0529 -3.75973,-0.34925 -10.54364,-1.4605 -2.88661,-0.47361 -5.47159,-1.32557 c -3.56393,-1.17739 -7.67556,-2.76489 -11.28183,-4.5376 -2.58498,-1.27265 -5.58535,-3.21998 -8.12535,-4.70694 q -0.92869,-0.54239 -1.63777,-1.03981 c -1.12184,-0.7911 -1.85473,-1.42081 -2.83369,-1.58221 a 0.53974999,0.50535416 11.2 0 0 -0.6059,0.37836 c -0.20373,0.88635 0.65088,1.62718 1.32821,2.2225 q 3.68829,3.25437 8.12535,5.48745 0.20373,0.10319 5.75734,2.84427 10.54629,5.207 22.30702,6.6093 a 0.05027083,0.05027083 0 0 1 0.0106,0.0979 q -2.21192,0.82286 -4.72017,2.0955 -1.29645,0.65617 -3.38137,1.10861 c -3.31258,0.71966 -7.10142,0.93662 -10.64419,0.53181 -1.15887,-0.13229 -3.25173,-0.28575 -4.75191,-0.57679 q -1.97115,-0.37836 -6.38969,-1.56369 -5.87111,-1.57427 -10.34256,-4.00844 -1.28588,-0.70114 -4.5085,-2.56646 c -2.1934,-1.26735 -4.75457,-2.50295 -6.77334,-3.75708 -0.64558,-0.40217 -1.79123,-0.49212 -1.63777,0.71702 0.12171,0.94986 2.36009,2.51619 3.13531,3.04271 3.58246,2.43946 6.92944,4.59317 10.82146,6.21242 q 5.75998,2.39977 11.34534,3.86291 1.00806,0.26459 1.73566,0.39423 1.73302,0.30692 1.74625,0.31221 a 0.05820833,0.05820833 0 0 1 -0.003,0.11113 z"
       id="path29"
       style="stroke-width:0.264583" /><path
       fill="#ffffff"
       d="m 87.074376,211.43912 a 0.079375,0.079375 0 0 1 0.100541,-0.0979 c 1.415521,0.42333 2.831042,0.71702 4.167188,1.143 q 5.000625,1.5875 9.577915,2.65112 a 0.1031875,0.1031875 0 0 1 0.0609,0.15611 q -1.378484,2.07433 -2.275421,3.32052 -1.222375,1.69598 -3.103563,1.79123 -2.442104,0.12435 -4.482041,-0.76994 c -0.685271,-0.30163 -1.055688,-0.71173 -1.431396,-1.46579 q -1.651,-3.34698 -2.614083,-6.72836 z"
       id="path30"
       style="stroke-width:0.264583" /><path
       fill="#ffffff"
       d="m 124.28802,229.03921 q -7.08819,0.0979 -10.47221,0.0714 -1.82298,-0.0132 -4.31271,0.1958 c -2.23043,0.1852 -4.96622,0.17462 -7.64116,-0.14817 q -1.1139,-0.13229 -3.315231,-0.29633 a 0.21166666,0.21166666 0 0 1 -0.193146,-0.25136 l 1.016,-5.22816 a 1.9579166,1.9499791 71.2 0 1 0.452437,-0.9234 c 1.78594,-2.03465 3.15913,-3.56658 4.0931,-5.78908 a 0.52122916,0.51858333 12.6 0 1 0.50271,-0.3175 c 1.75684,0.0873 3.54807,0.49741 7.31838,1.17475 q 2.49502,0.4445 5.03502,0.62706 a 1.4896041,1.4869583 69.9 0 1 0.96573,0.44979 q 1.29116,1.3335 3.38402,3.29935 1.76742,1.6563 3.9026,2.5453 a 0.18520833,0.1825625 15.8 0 1 0.11113,0.19579 l -0.65881,4.23069 a 0.19314583,0.19579166 4.3 0 1 -0.18786,0.16404 z"
       id="path31"
       style="stroke-width:0.265;stroke-dasharray:none" /><path
       fill="#ffffff"
       d="m 49.223084,244.96712 a 0.07672917,0.079375 24.7 0 1 -0.05027,-0.13758 q 1.706562,-1.48167 3.913187,-2.37067 3.897312,-1.56898 7.723187,-2.20662 2.532063,-0.42333 4.497917,-0.82815 6.175375,-1.27793 9.786937,-2.06375 1.754188,-0.38364 3.193521,-0.60589 c 1.984375,-0.30692 4.770438,-0.15875 6.775979,-0.34132 0.878417,-0.0794 2.291292,-0.24606 2.502959,-1.20914 q 0.362479,-1.66158 0.764645,-2.95275 c 0.9525,-3.06388 1.235605,-5.83671 1.815042,-8.78946 a 0.2143125,0.20902083 14.3 0 1 0.272521,-0.15875 q 2.759604,0.86783 5.670021,0.84138 a 0.11641667,0.1190625 6.1 0 1 0.116416,0.14552 q -0.613833,2.72785 -0.936625,3.99256 -0.53975,2.10344 -0.788458,3.77296 -0.494771,3.29406 -0.505354,3.82323 -0.07673,4.18306 -0.100542,4.55612 c -0.203729,3.17765 -2.024062,4.29948 -4.452937,5.82348 q -6.842125,4.29419 -14.525625,7.10671 -1.637771,0.59796 -3.024188,0.90752 a 0.381,0.38364583 69.5 0 1 -0.420687,-0.1905 l -1.285875,-2.39713 a 0.1984375,0.1984375 0 0 1 0.08202,-0.26722 l 9.776354,-5.24934 a 0.29633333,0.29633333 0 0 0 0.05556,-0.48419 l -0.02117,-0.0159 a 0.56356249,0.56620833 54.4 0 0 -0.627063,-0.10319 q -2.495021,1.15623 -5.924021,2.82311 c -1.058333,0.51593 -3.222625,1.29645 -4.587875,0.99483 -0.648229,-0.14288 -1.235604,0.15875 -1.912937,0.1905 q -3.709458,0.17727 -7.551208,0.98425 a 0.0635,0.0635 0 0 1 -0.06615,-0.0979 q 0.973667,-1.48431 1.426104,-2.96862 a 0.43656249,0.44714583 87.2 0 1 0.264583,-0.28575 q 3.264959,-1.27 6.731,-2.65377 1.190625,-0.47625 2.180167,-1.06098 a 0.3571875,0.34660416 52.1 0 0 0.06085,-0.55298 q -0.142875,-0.14288 -0.439208,-0.0185 -1.74625,0.73025 -3.640667,1.10596 -2.248958,0.44714 -4.966229,1.13506 a 2.0584583,2.0716875 48.4 0 1 -1.225021,-0.0688 c -1.447271,-0.54769 -3.450166,-0.4154 -5.490104,-0.30163 q -3.331104,0.18786 -5.066771,0.17727 z"
       id="path32"
       style="stroke-width:0.264583" /><path
       fill="#ffffff"
       d="m 93.223292,253.27769 c 4.447646,-4.2598 10.715628,-6.08013 16.650228,-8.001 q 1.2409,-0.40217 3.45546,-0.81492 c 2.62202,-0.49213 5.42925,-1.2356 7.65969,-1.69863 1.87589,-0.38629 3.47662,-1.09802 5.10381,-1.905 q 0.50271,-0.25135 0.61648,-1.03187 c 0.32279,-2.24896 0.26458,-4.96358 0.47625,-7.31308 q 0.38629,-4.2545 0.73289,-7.26282 a 0.08995833,0.0873125 8.1 0 1 0.10319,-0.0767 q 3.36815,0.55298 6.80244,-0.0979 a 0.127,0.127 0 0 1 0.14817,0.14817 c -0.63236,3.3311 -0.7964,6.32883 -1.03453,10.4775 -0.17727,3.08768 0.127,5.79966 0.24078,9.30275 q 0.11377,3.5851 -1.3044,6.3156 -0.47625,0.92075 -2.05317,2.92894 -1.02129,1.30175 -3.69623,3.7121 c -2.79664,2.51619 -4.84981,4.39473 -7.66497,5.81025 a 0.26458333,0.26458333 0 0 1 -0.37571,-0.17727 q -0.55827,-2.49767 -1.35467,-4.45823 a 0.27252083,0.26722916 64.9 0 1 0.11906,-0.33602 c 2.37596,-1.31498 4.572,-3.05329 6.35,-5.16202 q 0.69321,-0.82285 1.58221,-1.58221 a 0.32279166,0.32279166 0 0 0 0.0212,-0.46831 l -0.0106,-0.008 a 0.381,0.38364583 51.1 0 0 -0.48947,-0.0503 q -1.57957,1.07685 -4.39738,3.25173 c -1.15094,0.89165 -2.59292,1.89177 -4.0296,2.62731 a 0.48154166,0.47360416 40.5 0 1 -0.36777,0.0265 q -0.59532,-0.20373 -0.75142,-0.15346 -3.9079,1.24354 -4.75721,1.4314 -3.54012,0.78846 -6.97971,1.94204 -0.49477,0.16669 -1.18533,0.26458 a 0.111125,0.111125 0 0 1 -0.12436,-0.13493 c 0.45773,-2.04523 0.87313,-3.8788 2.52942,-4.86305 q 0.89429,-0.53181 3.69888,-2.18281 c 1.95262,-1.14829 3.8735,-1.87325 5.67531,-3.13267 a 0.40481249,0.40481249 0 0 0 0.12435,-0.52387 l -0.0423,-0.0794 a 0.30691666,0.3095625 63.3 0 0 -0.40481,-0.13229 q -1.95792,0.93927 -3.61157,1.54252 c -2.04787,0.74348 -3.76502,1.55575 -5.50068,2.46063 a 0.74612499,0.74347916 38.9 0 1 -0.55298,0.0582 c -1.66159,-0.46038 -3.93171,-0.84667 -5.886981,-0.56357 -1.658938,0.23813 -3.812646,0.37836 -5.466292,0.0688 a 0.09260417,0.09260417 0 0 1 -0.04762,-0.15875 z"
       id="path33"
       style="stroke-width:0.264583" /></g></svg>
